<?xml version="1.0" encoding="utf-8"?>
<!-- Generator: Adobe Illustrator 22.1.0, SVG Export Plug-In . SVG Version: 6.00 Build 0)  -->
<svg version="1.1" id="Layer_1" xmlns="http://www.w3.org/2000/svg" xmlns:xlink="http://www.w3.org/1999/xlink" x="0px" y="0px"
	 viewBox="0 0 33 32.8" style="enable-background:new 0 0 33 32.8;" xml:space="preserve">
<style type="text/css">
	.st0{fill:#020122;stroke:#020122;stroke-miterlimit:10;}
</style>
<polygon class="st0" points="10.6,28.4 11.1,29.7 9.9,28.8 8.8,29.7 9.2,28.3 8.1,27.5 9.5,27.5 9.9,26.2 10.3,27.5 11.7,27.5 "/>
<polygon class="st0" points="17.2,30.1 17.7,31.5 16.5,30.6 15.4,31.4 15.8,30.1 14.7,29.3 16.1,29.3 16.5,28 17,29.3 18.3,29.3 "/>
<polygon class="st0" points="28.6,23.6 29.1,24.9 27.9,24 26.8,24.9 27.2,23.5 26.1,22.7 27.5,22.7 27.9,21.4 28.4,22.7 29.7,22.7 
	"/>
<polygon class="st0" points="23.8,28.4 24.3,29.7 23.1,28.8 22,29.7 22.4,28.3 21.3,27.5 22.7,27.5 23.1,26.2 23.5,27.5 24.9,27.5 
	"/>
<polygon class="st0" points="5.8,23.6 6.3,24.9 5.1,24 3.9,24.9 4.4,23.5 3.3,22.7 4.6,22.7 5.1,21.4 5.5,22.7 6.9,22.7 "/>
<polygon class="st0" points="4,17 4.5,18.3 3.3,17.4 2.2,18.3 2.6,16.9 1.5,16.1 2.9,16.1 3.3,14.8 3.7,16.1 5.1,16.1 "/>
<polygon class="st0" points="10.6,5.6 11.1,6.9 9.9,6 8.8,6.9 9.2,5.6 8.1,4.7 9.5,4.7 9.9,3.4 10.3,4.7 11.7,4.7 "/>
<polygon class="st0" points="5.8,10.4 6.3,11.7 5.1,10.8 3.9,11.7 4.4,10.4 3.3,9.5 4.6,9.5 5.1,8.2 5.5,9.5 6.9,9.5 "/>
<polygon class="st0" points="17.2,3.7 17.7,5.1 16.5,4.2 15.4,5 15.8,3.7 14.7,2.9 16.1,2.9 16.5,1.6 17,2.9 18.3,2.9 "/>
<polygon class="st0" points="23.8,5.6 24.3,6.9 23.1,6 22,6.9 22.4,5.6 21.3,4.7 22.7,4.7 23.1,3.4 23.5,4.7 24.9,4.7 "/>
<polygon class="st0" points="30.4,17 30.9,18.3 29.8,17.4 28.6,18.3 29,16.9 27.9,16.1 29.3,16.1 29.8,14.8 30.2,16.1 31.5,16.1 "/>
<polygon class="st0" points="28.6,10.4 29.1,11.7 27.9,10.8 26.8,11.7 27.2,10.4 26.1,9.5 27.5,9.5 27.9,8.2 28.4,9.5 29.7,9.5 "/>
</svg>
