<?xml version="1.0" encoding="utf-8"?>
<!-- Generator: Adobe Illustrator 22.1.0, SVG Export Plug-In . SVG Version: 6.00 Build 0)  -->
<svg version="1.1" id="Layer_1" xmlns="http://www.w3.org/2000/svg" xmlns:xlink="http://www.w3.org/1999/xlink" x="0px" y="0px"
	 viewBox="0 0 36 29.4" style="enable-background:new 0 0 36 29.4;" xml:space="preserve">
<style type="text/css">
	.st0{fill:#020122;}
</style>
<g>
	<path class="st0" d="M35.5,16.2L31.1,4.1h1.2c0.4,0,0.7-0.3,0.7-0.7s-0.3-0.7-0.7-0.7h-11C20.9,1.2,19.6,0,18,0
		c-1.6,0-2.9,1.2-3.2,2.7H4.3C3.9,2.7,3.6,3,3.6,3.4s0.3,0.7,0.7,0.7h0.6L0.5,16.2C0.2,16.3,0,16.6,0,16.9c0,3.3,2.7,6,6,6
		c1.6,0,3.1-0.6,4.3-1.8c1.2-1.1,1.8-2.7,1.8-4.3c0-0.3-0.2-0.6-0.5-0.7L7.1,4.1h7.7c0.3,1.2,1.3,2.1,2.6,2.4V28h-6.1
		c-0.4,0-0.7,0.3-0.7,0.7s0.3,0.7,0.7,0.7h13.4c0.4,0,0.7-0.3,0.7-0.7S25.1,28,24.7,28h-5.8V6.5c1.1-0.3,2-1.2,2.3-2.3h7.7
		l-4.5,12.1c-0.3,0.1-0.5,0.4-0.5,0.7c0,3.3,2.7,6,6,6c1.6,0,3.1-0.6,4.3-1.8c1.2-1.1,1.8-2.7,1.8-4.3C36,16.6,35.8,16.3,35.5,16.2z
		 M10,16.2H2.1L6,5.4L10,16.2z M18,5.1c-1,0-1.8-0.8-1.8-1.8S17,1.5,18,1.5s1.8,0.8,1.8,1.8S19,5.1,18,5.1z M26,16.2l4-10.8l4,10.8
		H26z"/>
</g>
</svg>
