<?xml version="1.0" encoding="utf-8"?>
<!-- Generator: Adobe Illustrator 22.1.0, SVG Export Plug-In . SVG Version: 6.00 Build 0)  -->
<svg version="1.1" id="Layer_1" xmlns="http://www.w3.org/2000/svg" xmlns:xlink="http://www.w3.org/1999/xlink" x="0px" y="0px"
	 viewBox="0 0 22.4 30" style="enable-background:new 0 0 22.4 30;" xml:space="preserve">
<style type="text/css">
	.st0{fill:#FFFFFF;}
</style>
<g>
	<path class="st0" d="M2.5,1.3c-0.7,0-1.2,0.5-1.2,1.2s0.5,1.2,1.2,1.2s1.2-0.5,1.2-1.2S3.1,1.3,2.5,1.3z"/>
	<path class="st0" d="M20.3,4.7c0-0.2-0.2-0.4-0.4-0.4c-0.2-0.1-0.4-0.1-0.6,0c-1.7,1-3.6,1.5-5.3,1.7l-0.3-1.2
		c-0.1-0.3-0.3-0.5-0.6-0.5C13,4.3,8,3.8,3.9,5.7L3.7,4.6c0.7-0.4,1.3-1.2,1.3-2.2C4.9,1.1,3.8,0,2.5,0C1.1,0,0,1.1,0,2.5
		c0,1.4,1.1,2.5,2.5,2.5l4.3,24.5C6.8,29.8,7.1,30,7.4,30c0,0,0.1,0,0.1,0c0.3-0.1,0.6-0.4,0.5-0.7L5.9,17.5c0.1,0,0.1-0.1,0.2-0.1
		c0.4-0.3,2.3-1.7,4.8-2.4l0.5,1.9c0.1,0.3,0.3,0.5,0.6,0.5c0.4,0,0.7,0.1,1.1,0.1c4.6,0,8.9-2.7,9.1-2.8c0.2-0.1,0.3-0.4,0.3-0.7
		L20.3,4.7z M2.5,3.7c-0.7,0-1.2-0.5-1.2-1.2s0.5-1.2,1.2-1.2s1.2,0.5,1.2,1.2S3.1,3.7,2.5,3.7z M11.3,13.6
		c-2.6,0.5-4.7,1.9-5.6,2.6L4.1,7c3.2-1.6,7.2-1.6,8.5-1.5l1.8,7.9C13.4,13.3,12.4,13.4,11.3,13.6z M12.5,16.1l-0.3-1.4
		c1-0.1,2-0.1,3,0.1c0.2,0,0.4,0,0.6-0.2c0.2-0.2,0.2-0.4,0.2-0.6l-1.5-6.8c1.6-0.2,3.3-0.7,4.9-1.5l1.8,8
		C19.9,14.5,16.1,16.3,12.5,16.1z"/>
</g>
</svg>
