<?xml version="1.0" encoding="utf-8"?>
<!-- Generator: Adobe Illustrator 22.1.0, SVG Export Plug-In . SVG Version: 6.00 Build 0)  -->
<svg version="1.1" id="Layer_1" xmlns="http://www.w3.org/2000/svg" xmlns:xlink="http://www.w3.org/1999/xlink" x="0px" y="0px"
	 viewBox="0 0 17 30" style="enable-background:new 0 0 17 30;" xml:space="preserve">
<style type="text/css">
	.st0{fill:#FFFFFF;}
</style>
<path class="st0" d="M14.7,0H2.3C1,0,0,1.1,0,2.4c0,0,0,0,0,0v25.2C0,28.9,1,30,2.3,30h12.3c1.3,0,2.3-1.1,2.3-2.4V2.4
	C17,1.1,16,0,14.7,0C14.7,0,14.7,0,14.7,0z M2.3,1.4h12.3c0.5,0,1,0.4,1,1c0,0,0,0,0,0v1.1H1.4V2.4C1.4,1.9,1.8,1.4,2.3,1.4
	C2.3,1.4,2.3,1.4,2.3,1.4z M15.6,4.9v17.3H1.4V4.9L15.6,4.9z M14.7,28.6H2.3c-0.5,0-1-0.4-1-1c0,0,0,0,0,0v-4h14.2v4
	C15.6,28.1,15.2,28.6,14.7,28.6C14.7,28.6,14.7,28.6,14.7,28.6L14.7,28.6z"/>
<ellipse class="st0" cx="8.5" cy="26" rx="1.3" ry="1.3"/>
</svg>
