<?xml version="1.0" encoding="utf-8"?>
<!-- Generator: Adobe Illustrator 22.1.0, SVG Export Plug-In . SVG Version: 6.00 Build 0)  -->
<svg version="1.1" id="Layer_1" xmlns="http://www.w3.org/2000/svg" xmlns:xlink="http://www.w3.org/1999/xlink" x="0px" y="0px"
	 viewBox="0 0 30 30" style="enable-background:new 0 0 30 30;" xml:space="preserve">
<style type="text/css">
	.st0{fill:#FFFFFF;}
</style>
<g>
	<path class="st0" d="M30,11.1c0-2.3-1.9-4.2-4.2-4.2c-2.3,0-4.2,1.9-4.2,4.2c0,2,1.4,3.7,3.3,4.1V20c0,4.2-3.4,7.7-7.7,7.7
		S9.5,24.3,9.5,20v-4.8c4.3-0.6,7.7-5.5,7.7-11.4c0-0.9-0.1-1.7-0.2-2.6l-0.1-0.8h-3.6v1.9h2c0.1,0.5,0.1,1,0.1,1.5
		c0,5.3-3,9.6-6.7,9.6c-3.7,0-6.7-4.3-6.7-9.6c0-0.5,0-1,0.1-1.5h2V0.4H0.3L0.2,1.2C0.1,2,0,2.9,0,3.8c0,5.9,3.4,10.8,7.7,11.4V20
		c0,5.3,4.3,9.5,9.5,9.5c5.3,0,9.5-4.3,9.5-9.5v-4.9C28.6,14.7,30,13.1,30,11.1z"/>
</g>
</svg>
