<?xml version="1.0" encoding="utf-8"?>
<!-- Generator: Adobe Illustrator 22.1.0, SVG Export Plug-In . SVG Version: 6.00 Build 0)  -->
<svg version="1.1" id="Layer_1" xmlns="http://www.w3.org/2000/svg" xmlns:xlink="http://www.w3.org/1999/xlink" x="0px" y="0px"
	 viewBox="0 0 29 28.6" style="enable-background:new 0 0 29 28.6;" xml:space="preserve">
<style type="text/css">
	.st0{fill:#FFFFFF;}
</style>
<path class="st0" d="M23.2,0h-17C2.9,0,0.1,2.7,0,6.1v8.3c0.1,3.4,2.8,6.1,6.2,6.2h6.1l-2,7.1c-0.1,0.4,0.1,0.9,0.6,1
	c0.2,0.1,0.5,0,0.7-0.1l9.6-7.9h2c3.3,0,5.8-2.7,5.8-6.2V6.1C29,2.7,26.5,0,23.2,0z M27.4,14.4c0,2.6-1.9,4.6-4.2,4.6h-2.3
	c-0.2,0-0.4,0.1-0.5,0.2l-7.8,6.5l1.6-5.7c0.1-0.4-0.1-0.9-0.6-1c-0.1,0-0.2,0-0.2,0H6.2c-2.5,0-4.6-2.1-4.7-4.6V6.1
	c0.1-2.5,2.1-4.5,4.7-4.5h17c2.4,0,4.2,1.9,4.2,4.5V14.4z"/>
<path class="st0" d="M5.2,8.6c-1,1-1,2.6,0,3.6s2.6,1,3.6,0c1-1,1-2.6,0-3.6c0,0,0,0,0,0C7.8,7.6,6.2,7.6,5.2,8.6
	C5.2,8.6,5.2,8.6,5.2,8.6z"/>
<path class="st0" d="M20.2,8.6c-1,1-1,2.6,0,3.6s2.6,1,3.6,0c1-1,1-2.6,0-3.6c0,0,0,0,0,0C22.8,7.6,21.2,7.6,20.2,8.6z"/>
<path class="st0" d="M13,8.6c-1,1-1,2.6,0,3.6s2.6,1,3.6,0s1-2.6,0-3.6c0,0,0,0,0,0C15.6,7.6,14,7.6,13,8.6z"/>
</svg>
