<?xml version="1.0" encoding="UTF-8" standalone="no"?>
<!-- Generator: Adobe Illustrator 22.1.0, SVG Export Plug-In . SVG Version: 6.00 Build 0)  -->

<svg
   xmlns:dc="http://purl.org/dc/elements/1.1/"
   xmlns:cc="http://creativecommons.org/ns#"
   xmlns:rdf="http://www.w3.org/1999/02/22-rdf-syntax-ns#"
   xmlns:svg="http://www.w3.org/2000/svg"
   xmlns="http://www.w3.org/2000/svg"
   xmlns:sodipodi="http://sodipodi.sourceforge.net/DTD/sodipodi-0.dtd"
   xmlns:inkscape="http://www.inkscape.org/namespaces/inkscape"
   version="1.1"
   id="Layer_1"
   x="0px"
   y="0px"
   viewBox="0 0 31 19"
   style="enable-background:new 0 0 31 19;"
   xml:space="preserve"
   inkscape:version="0.91 r13725"
   sodipodi:docname="button-arrow-white.svg"><metadata
     id="metadata11"><rdf:RDF><cc:Work
         rdf:about=""><dc:format>image/svg+xml</dc:format><dc:type
           rdf:resource="http://purl.org/dc/dcmitype/StillImage" /></cc:Work></rdf:RDF></metadata><defs
     id="defs9" /><sodipodi:namedview
     pagecolor="#ffffff"
     bordercolor="#666666"
     borderopacity="1"
     objecttolerance="10"
     gridtolerance="10"
     guidetolerance="10"
     inkscape:pageopacity="0"
     inkscape:pageshadow="2"
     inkscape:window-width="1920"
     inkscape:window-height="1027"
     id="namedview7"
     showgrid="false"
     inkscape:zoom="24.26973"
     inkscape:cx="23.005047"
     inkscape:cy="10.78294"
     inkscape:window-x="0"
     inkscape:window-y="0"
     inkscape:window-maximized="1"
     inkscape:current-layer="Layer_1" /><g
     transform="translate(0,-952.36218)"
     id="g3"><path
       d="M31,961.9c0-0.2-0.1-0.5-0.3-0.7l-8-8.5c-0.4-0.4-1-0.4-1.4,0c-0.4,0.4-0.4,1,0,1.4l6.4,6.8H1c-0.6,0-1,0.4-1,1s0.4,1,1,1   h26.7l-6.4,6.8c-0.4,0.4-0.3,1,0,1.4c0.4,0.4,1,0.4,1.4,0l8-8.5C31,962.3,31,962.1,31,961.9z"
       id="path5" /></g><path
     style="fill:#ffffff;fill-opacity:1"
     d="m 21.338934,18.788558 c -0.327693,-0.327693 -0.419569,-0.896471 -0.199148,-1.232876 0.100619,-0.153563 1.582022,-1.764072 3.292007,-3.57891 L 27.540858,10.677068 14.051668,10.618797 0.56247941,10.560526 0.2812397,10.233539 C -0.06281248,9.8335214 -0.08804665,9.2383211 0.22277183,8.8544523 L 0.44554365,8.5793233 14.022305,8.5210526 27.599066,8.462782 25.948968,6.7089807 C 25.041415,5.7443901 23.551551,4.1608764 22.638158,3.1900614 20.769702,1.2041409 20.673921,0.99837557 21.318103,0.35419317 c 0.468809,-0.46880927 0.940461,-0.45647008 1.456333,0.0381001 1.434033,1.37481927 8.117767,8.64745637 8.181839,8.90274107 0.04246,0.1691926 0.03034,0.430629 -0.02694,0.5809698 -0.05728,0.1503409 -1.982282,2.2669419 -4.277781,4.7035589 -4.119291,4.372528 -4.17961,4.430211 -4.632519,4.430211 -0.295291,0 -0.537749,-0.07886 -0.680101,-0.221216 z"
     id="path3339"
     inkscape:connector-curvature="0" /></svg>