<?xml version="1.0" encoding="utf-8"?>
<!-- Generator: Adobe Illustrator 22.1.0, SVG Export Plug-In . SVG Version: 6.00 Build 0)  -->
<svg version="1.1" id="Layer_1" xmlns="http://www.w3.org/2000/svg" xmlns:xlink="http://www.w3.org/1999/xlink" x="0px" y="0px"
	 viewBox="0 0 22 30" style="enable-background:new 0 0 22 30;" xml:space="preserve">
<style type="text/css">
	.st0{fill:#FFFFFF;}
</style>
<g>
	<path class="st0" d="M0.5,30h20c0.8,0,1.5-0.7,1.5-1.5v-27C22,0.7,21.3,0,20.5,0h-20C0.2,0,0,0.2,0,0.5v29C0,29.8,0.2,30,0.5,30z
		 M1,1h19.5C20.8,1,21,1.2,21,1.5v27c0,0.3-0.2,0.5-0.5,0.5H1V1z"/>
	<path class="st0" d="M11,6.5c-4.1,0-7.5,3.4-7.5,7.5s3.4,7.5,7.5,7.5s7.5-3.4,7.5-7.5C18.5,9.9,15.1,6.5,11,6.5z M16.5,11
		c-0.5-0.2-1-0.3-1.6-0.4c-0.2-0.7-0.5-1.4-0.9-2C15,9.1,15.9,9.9,16.5,11z M4.7,14c0-0.5,0.1-0.9,0.2-1.4c0.6-0.3,1.2-0.6,1.9-0.7
		c-0.1,0.7-0.2,1.4-0.2,2.1c0,0.5,0,1,0.1,1.4C6,15.3,5.4,15,4.8,14.7C4.8,14.4,4.7,14.2,4.7,14z M7.9,14c0-0.8,0.1-1.6,0.2-2.3
		c0.8-0.1,1.5-0.1,2.3-0.2v4.4c-0.8,0-1.6-0.1-2.4-0.2C7.9,15.1,7.9,14.6,7.9,14z M11.6,7.9c0.8,0.3,1.4,1.3,1.9,2.5
		c-0.6-0.1-1.2-0.1-1.9-0.1V7.9z M10.4,7.9v2.4c-0.6,0-1.2,0-1.9,0.1C8.9,9.1,9.6,8.2,10.4,7.9z M10.4,17.1v3
		c-0.9-0.4-1.7-1.6-2.1-3.1C9,17.1,9.7,17.1,10.4,17.1z M11.6,20.1v-3c0.6,0,1.4-0.1,2.1-0.1C13.3,18.6,12.5,19.7,11.6,20.1
		L11.6,20.1z M11.6,15.9v-4.4c0.8,0,1.5,0.1,2.3,0.2c0.2,0.8,0.2,1.5,0.2,2.3c0,0.6,0,1.1-0.1,1.7C13.2,15.8,12.4,15.9,11.6,15.9
		L11.6,15.9z M15.2,11.9c0.7,0.1,1.3,0.4,1.9,0.7c0.2,0.7,0.2,1.4,0.1,2c-0.6,0.4-1.2,0.6-1.9,0.8c0.1-0.5,0.1-1,0.1-1.4
		C15.4,13.3,15.3,12.6,15.2,11.9L15.2,11.9z M8,8.5c-0.4,0.6-0.7,1.3-0.9,2c-0.5,0.1-1,0.2-1.6,0.4C6.1,9.9,7,9.1,8,8.5z M5.2,16.3
		c0.6,0.2,1.1,0.4,1.7,0.5c0.2,1,0.6,1.9,1.1,2.7C6.7,18.8,5.7,17.6,5.2,16.3L5.2,16.3z M14,19.5c0.5-0.8,0.9-1.8,1.1-2.7
		c0.6-0.1,1.2-0.3,1.7-0.5C16.3,17.6,15.3,18.8,14,19.5L14,19.5z"/>
</g>
<rect x="3.5" y="23.5" class="st0" width="15" height="1.5"/>
</svg>
