<?xml version="1.0" encoding="utf-8"?>
<!-- Generator: Adobe Illustrator 22.1.0, SVG Export Plug-In . SVG Version: 6.00 Build 0)  -->
<svg version="1.1" id="Layer_1" xmlns="http://www.w3.org/2000/svg" xmlns:xlink="http://www.w3.org/1999/xlink" x="0px" y="0px"
	 viewBox="0 0 30.3 30.3" style="enable-background:new 0 0 30.3 30.3;" xml:space="preserve">
<style type="text/css">
	.st0{fill:none;}
	.st1{fill:#020122;}
</style>
<g>
	<path class="st0" d="M12,25.7c0.9,1.2,1.8,2,2.4,2.5V23c-1.3,0-2.6,0.2-3.9,0.5C11,24.3,11.5,25,12,25.7z"/>
	<path class="st0" d="M10,22.3c1.4-0.4,2.9-0.6,4.5-0.6v-5.6H8.6C8.7,18.3,9.1,20.4,10,22.3z"/>
	<path class="st0" d="M11,26.6c-0.6-0.7-1.1-1.6-1.7-2.7c-1.1,0.4-2.2,0.9-3.2,1.5c1.9,1.7,4.3,2.8,6.9,3.3
		C12.3,28.2,11.6,27.5,11,26.6z"/>
	<path class="st0" d="M8.6,14.7h5.9V8.6c-1.6,0-3.1-0.3-4.5-0.6C9.1,10,8.6,12.3,8.6,14.7z"/>
	<path class="st0" d="M7.2,16.1H1.4C1.6,19.3,3,22.2,5,24.5c1.1-0.7,2.4-1.3,3.6-1.8C7.9,20.9,7.3,18.7,7.2,16.1z"/>
	<path class="st0" d="M11,3.7c0.7-0.9,1.4-1.6,1.9-2.1C10.3,2,7.9,3.1,6,4.8c1,0.6,2.1,1.1,3.2,1.5C9.8,5.3,10.4,4.4,11,3.7z"/>
	<path class="st0" d="M12,4.6c-0.5,0.7-1,1.4-1.4,2.2c1.2,0.3,2.5,0.5,3.8,0.5V2C13.8,2.6,12.9,3.4,12,4.6z"/>
	<path class="st0" d="M8.7,7.6C7.4,7.1,6.2,6.5,5,5.8c-2.2,2.4-3.5,5.5-3.6,8.9h5.8C7.2,11.9,7.9,9.5,8.7,7.6z"/>
	<path class="st0" d="M19.3,26.6c-0.7,0.9-1.4,1.6-1.9,2.1c2.6-0.4,5-1.6,6.9-3.3c-1-0.6-2.1-1.1-3.2-1.5
		C20.5,25,19.9,25.9,19.3,26.6z"/>
	<path class="st0" d="M19.7,23.6c-1.2-0.3-2.5-0.5-3.9-0.5v5.2c0.7-0.5,1.6-1.4,2.4-2.5C18.8,25,19.3,24.3,19.7,23.6z"/>
	<path class="st0" d="M21.6,7.6c0.8,1.9,1.4,4.3,1.5,7.1h5.8c-0.1-3.4-1.5-6.5-3.6-8.9C24.1,6.5,22.9,7.1,21.6,7.6z"/>
	<path class="st0" d="M21.6,22.7c1.3,0.4,2.5,1,3.6,1.8c2.1-2.2,3.4-5.2,3.6-8.4h-5.8C23,18.7,22.4,20.9,21.6,22.7z"/>
	<path class="st0" d="M19.3,3.7c0.6,0.7,1.1,1.6,1.7,2.7c1.1-0.4,2.2-0.9,3.2-1.5C22.3,3.1,20,2,17.4,1.6C18,2.1,18.6,2.8,19.3,3.7z
		"/>
	<path class="st0" d="M20.3,8c-1.4,0.4-2.9,0.6-4.5,0.6v6.1h5.9C21.7,12,21.1,9.8,20.3,8z"/>
	<path class="st0" d="M18.2,4.5c-0.9-1.1-1.8-2-2.4-2.5v5.2c1.3,0,2.6-0.2,3.8-0.5C19.2,5.9,18.7,5.1,18.2,4.5z"/>
	<path class="st0" d="M21.7,16.1h-5.9v5.6c1.6,0,3.1,0.3,4.5,0.6C21.1,20.4,21.6,18.3,21.7,16.1z"/>
	<path class="st1" d="M30.3,15.3c0-0.1,0-0.1,0-0.2c0-4.1-1.7-7.9-4.4-10.6c0-0.1-0.1-0.1-0.1-0.1C23,1.7,19.3,0,15.1,0
		C11,0,7.2,1.7,4.5,4.4c0,0-0.1,0.1-0.1,0.1C1.7,7.2,0,11,0,15.1c0,0.1,0,0.1,0,0.2c0,0,0,0,0,0c0,0,0,0.1,0,0.1
		c0.1,4,1.7,7.6,4.3,10.3c0,0.1,0.1,0.1,0.1,0.2c2.7,2.7,6.5,4.4,10.6,4.4h0c0,0,0,0,0,0c0,0,0,0,0,0h0l0,0l0,0
		c4.1,0,7.9-1.7,10.6-4.4c0.1,0,0.1-0.1,0.1-0.1c2.6-2.7,4.3-6.3,4.4-10.3C30.3,15.5,30.3,15.4,30.3,15.3
		C30.3,15.4,30.3,15.4,30.3,15.3z M12.9,1.6c-0.6,0.5-1.3,1.2-1.9,2.1c-0.6,0.7-1.1,1.6-1.7,2.7C8.1,5.9,7.1,5.4,6,4.8
		C7.9,3.1,10.3,2,12.9,1.6z M5,5.8c1.1,0.7,2.4,1.3,3.6,1.8c-0.8,1.9-1.4,4.3-1.5,7.1H1.4C1.5,11.3,2.8,8.2,5,5.8z M1.4,16.1h5.8
		c0.1,2.6,0.7,4.8,1.5,6.6c-1.3,0.4-2.5,1-3.6,1.8C3,22.2,1.6,19.3,1.4,16.1z M6,25.5c1-0.6,2.1-1.1,3.2-1.5c0.5,1,1.1,1.9,1.7,2.7
		c0.7,0.9,1.4,1.6,1.9,2.1C10.3,28.3,7.9,27.1,6,25.5z M14.5,28.2c-0.7-0.5-1.6-1.4-2.4-2.5c-0.5-0.7-1-1.4-1.4-2.2
		c1.2-0.3,2.5-0.5,3.9-0.5V28.2z M14.5,21.6c-1.6,0-3.1,0.3-4.5,0.6c-0.8-1.9-1.3-4-1.4-6.2h5.9L14.5,21.6L14.5,21.6z M14.5,14.7
		H8.6C8.6,12.3,9.1,10,10,8c1.4,0.4,2.9,0.6,4.5,0.6L14.5,14.7L14.5,14.7z M14.5,7.2c-1.3,0-2.6-0.2-3.8-0.5C11,6,11.5,5.3,12,4.6
		c0.9-1.2,1.8-2,2.4-2.5L14.5,7.2L14.5,7.2z M24.2,4.8c-1,0.6-2.1,1.1-3.2,1.5c-0.5-1-1.1-1.9-1.7-2.7c-0.7-0.9-1.4-1.6-1.9-2.1
		C20,2,22.3,3.1,24.2,4.8z M15.8,2c0.6,0.5,1.5,1.3,2.4,2.5c0.5,0.6,1,1.3,1.4,2.2c-1.2,0.3-2.5,0.5-3.8,0.5V2z M15.8,8.6
		c1.6,0,3-0.3,4.5-0.6c0.8,1.8,1.4,4,1.4,6.7h-5.9V8.6z M15.8,16.1h5.9c-0.1,2.2-0.6,4.3-1.4,6.2c-1.4-0.4-2.9-0.6-4.5-0.6
		C15.8,21.6,15.8,16.1,15.8,16.1z M15.8,28.2V23c1.3,0,2.6,0.2,3.9,0.5c-0.4,0.7-0.9,1.5-1.4,2.2C17.4,26.9,16.5,27.7,15.8,28.2z
		 M17.4,28.7c0.6-0.5,1.3-1.2,1.9-2.1c0.6-0.7,1.1-1.6,1.7-2.7c1.1,0.4,2.2,0.9,3.2,1.5C22.3,27.1,20,28.3,17.4,28.7z M25.3,24.5
		c-1.1-0.7-2.4-1.3-3.6-1.8c0.8-1.8,1.4-4,1.5-6.6h5.8C28.6,19.3,27.3,22.2,25.3,24.5z M23.1,14.7c-0.1-2.8-0.7-5.2-1.5-7.1
		c1.3-0.4,2.5-1,3.6-1.8c2.2,2.4,3.5,5.5,3.6,8.9H23.1z"/>
</g>
</svg>
