<?xml version="1.0" encoding="utf-8"?>
<!-- Generator: Adobe Illustrator 22.1.0, SVG Export Plug-In . SVG Version: 6.00 Build 0)  -->
<svg version="1.1" id="Layer_1" xmlns="http://www.w3.org/2000/svg" xmlns:xlink="http://www.w3.org/1999/xlink" x="0px" y="0px"
	 viewBox="0 0 31 19" style="enable-background:new 0 0 31 19;" xml:space="preserve">
<g transform="translate(0,-952.36218)">
	<path d="M31,961.9c0-0.2-0.1-0.5-0.3-0.7l-8-8.5c-0.4-0.4-1-0.4-1.4,0c-0.4,0.4-0.4,1,0,1.4l6.4,6.8H1c-0.6,0-1,0.4-1,1s0.4,1,1,1
		h26.7l-6.4,6.8c-0.4,0.4-0.3,1,0,1.4c0.4,0.4,1,0.4,1.4,0l8-8.5C31,962.3,31,962.1,31,961.9z"/>
</g>
</svg>
