<?xml version="1.0" encoding="utf-8"?>
<!-- Generator: Adobe Illustrator 22.1.0, SVG Export Plug-In . SVG Version: 6.00 Build 0)  -->
<svg version="1.1" id="Layer_1" xmlns="http://www.w3.org/2000/svg" xmlns:xlink="http://www.w3.org/1999/xlink" x="0px" y="0px"
	 viewBox="0 0 17.4 17.4" style="enable-background:new 0 0 17.4 17.4;" xml:space="preserve">
<style type="text/css">
	.st0{fill:#020122;}
</style>
<g>
	<path class="st0" d="M8.7,4.2c-2.5,0-4.5,2-4.5,4.5s2,4.5,4.5,4.5s4.5-2,4.5-4.5S11.1,4.2,8.7,4.2z M8.7,11.5
		c-1.6,0-2.9-1.3-2.9-2.9s1.3-2.9,2.9-2.9s2.9,1.3,2.9,2.9S10.3,11.5,8.7,11.5z"/>
	<circle class="st0" cx="13.3" cy="4.1" r="1"/>
	<path class="st0" d="M16,1.4C15.1,0.5,13.8,0,12.3,0H5.1C2,0,0,2,0,5.1v7.2c0,1.5,0.5,2.8,1.5,3.7c0.9,0.9,2.2,1.4,3.6,1.4h7.1
		c1.5,0,2.8-0.5,3.7-1.4c0.9-0.9,1.4-2.2,1.4-3.7V5.1C17.4,3.6,16.9,2.3,16,1.4z M15.8,12.3c0,1.1-0.4,2-1,2.6
		c-0.6,0.6-1.5,0.9-2.6,0.9H5.1c-1.1,0-1.9-0.3-2.6-0.9c-0.6-0.6-0.9-1.5-0.9-2.6V5.1c0-1.1,0.3-1.9,0.9-2.6
		c0.6-0.6,1.5-0.9,2.6-0.9h7.2c1.1,0,1.9,0.3,2.6,0.9c0.6,0.6,0.9,1.5,0.9,2.5V12.3L15.8,12.3z"/>
</g>
</svg>
