<?xml version="1.0" encoding="utf-8"?>
<!-- Generator: Adobe Illustrator 22.1.0, SVG Export Plug-In . SVG Version: 6.00 Build 0)  -->
<svg version="1.1" id="Layer_1" xmlns="http://www.w3.org/2000/svg" xmlns:xlink="http://www.w3.org/1999/xlink" x="0px" y="0px"
	 viewBox="0 0 256 206.3" style="enable-background:new 0 0 256 206.3;" xml:space="preserve">
<style type="text/css">
	.st0{fill:#F82151;}
</style>
<path class="st0" d="M230.8,79c-0.8-2.3-2.8-4-5.2-4.3l-62.9-9.4L133.8,3.7c-1.5-3.2-5.4-4.6-8.6-3.1c-1.4,0.6-2.5,1.7-3.1,3.1
	L93.3,65.3l-62.9,9.4c-3.5,0.5-6,3.8-5.4,7.3c0.2,1.4,0.8,2.6,1.8,3.6L72,131.2l-11.1,67.6c-0.6,3.5,1.8,6.8,5.3,7.4
	c1.6,0.3,3.3-0.1,4.7-1l57.1-39l57.1,39.1c2.9,2,7,1.3,9-1.7c0.9-1.4,1.3-3.1,1-4.7L184,131.2l45.2-45.6
	C230.9,83.9,231.5,81.3,230.8,79z"/>
<path d="M160.8,67.3c-9.8,11-20.8,17.1-33.3,18.3c-6,0.4-12.7-2-20.3-7.1c-8.5-5.6-12.7-11.7-12.7-18.3c0-4.1,0.7-7.6,2.1-10.5
	c8-16.1,19.7-23.8,35.3-23c7.4-0.3,13,2.1,16.9,7.3c0.9,1.3,3.2,2.6,6.8,3.8c5.1,2.9,8.2,7.5,9.4,13.6
	C166.3,57.5,164.8,62.8,160.8,67.3z M147.5,37.9c-3.8-4.4-8.9-6.4-15.4-6.3c-6.1,0.2-11.4,1.8-16.1,4.7c-4.8,3.1-8.6,7.4-11.2,12.8
	c1.1,0,2.7-0.9,4.8-2.6s4-2.6,5.8-2.7c-1,2.1-2.6,3.9-4.7,5.5c-1.2,0.9-3,2.1-5.4,3.8c-2.9,2.1-4.5,3.7-4.5,5
	c-0.2,1.3,0.9,3.5,3.1,6.4c1.7-0.5,4.2-2.1,7.5-5c3.1-2.7,6.1-4.4,8.8-5c-1.8,2.4-4.4,4.9-7.7,7.5c-3.6,2.7-6,4.7-7.1,6
	c2.3,2.5,3.8,3.8,4.6,4.1c0.8,0.1,2.4-0.6,4.8-2.1c2.2-1.8,3.8-3,5-3.6c1.1-1,2.1-1.7,2.8-2c1.1-0.8,2.4-0.8,3.8,0
	c-0.6,0.7-2.7,2.3-6.5,5c-2.7,2-4.6,3.8-5.8,5.5c2,1.5,3.7,2.4,5.3,2.6c1.6,0.1,3.4-0.7,5.3-2.3c3.8-3.5,7.9-5.8,12.2-6.8
	c-1.1,1.6-3.1,3.4-6,5.4c-2.7,1.8-4.4,3.4-5.1,4.8c0.5,0.8,1.5,1.1,3,1.1c4.4-0.4,8.8-1.8,13.2-4.4c2.1-1.2,5.9-4,11.4-8.2
	c4-3.1,5.9-7.6,5.7-13.4c-0.2-5.8-2.5-9.8-6.8-12.1C151.3,41.4,149.7,40,147.5,37.9z M151.5,87c0.4,0.2,0.5,1.8,0.4,4.7
	c-0.1,1.4,0.4,2.7,1.4,3.8c0.6,0.5,1.5,1.2,2.8,2.3c6.3,5.8,10.8,12.4,13.2,19.8c2,5.5,2.6,10.9,1.7,16.1c-0.6,3.7-0.5,5.9,0.3,6.5
	c0.7,0.6,3.2,0.4,7.7-0.4c-2.7-4.8-3.5-9.8-2.4-14.9c0.9-3.9,3-8.3,6.5-13.4c1.6-2.4,2.5-4,2.7-4.8c0.6-2-0.2-3.7-2.3-5.3
	c-0.8-0.6-0.6-1.5,0.4-2.7c1.1-0.9,2.1-1.2,2.8-0.7l3.7,2.7c9,8,19.4,9.2,31.3,3.8c1.8-0.9,3.2-1.1,4.1-0.9c1.1,0.4,2.2,1.5,3.1,3.3
	c1.3,2.7,3.4,6.6,6.1,11.8c2.3,4.5,3.6,8.7,4,12.5l0.4,1.4c-1.5,7.3,1.4,10.9,8.7,10.9c2.2-0.2,3.6,0.7,4.4,2.6
	c1.8,4.7,2.9,8.7,3.3,11.8c0.3,4.4-0.6,8.4-2.7,12.2c-3.9,6.7-9.4,9.9-16.5,9.5c-7-0.4-17.7-0.9-32-1.7c-2.2,0-11.8-0.5-28.7-1.4
	c-11.5-0.6-21-0.6-28.7,0c-2.8,0.2-5.7,0.2-8.7,0c-9.8-0.9-22.3-1.2-37.5-1.1c-22,0.2-34.4,0.2-37.4,0.1c-5.7-0.1-14.3-0.2-25.7-0.3
	c-10.1-0.2-18.7-0.7-25.7-1.4c-3.5-0.3-6.1-1.2-7.7-2.8c-1.8-1.6-3-4.2-3.7-7.7c-1-4.9-1.2-11.4-0.4-19.5c0.3-3.3,0.9-5.4,1.7-6.1
	c0.6-0.7,2.6-1.3,6.1-1.8c1.7-0.2,2.7-0.6,3.1-1.1c0.5-0.7,0.3-1.9-0.6-3.7c-1.8-4.2-2-8.5-0.7-12.9c0.9-3.2,2.9-7.1,6-11.7
	c0.3-0.4,1.9-2,4.8-5c1.9-1.9,2.9-3.9,3-6.1c0.1-0.6,0.4-0.9,1-1c0.6-0.3,1.1-0.2,1.7,0.1c1.2,0.7,2.1,1.2,2.6,1.6
	c4.1,3.5,9,5,14.6,4.4c5.6-0.4,10.8-2.5,15.8-6.3l2.1-2.3c1.1-1.2,2.3-1.4,3.4-0.4c1.1,1.1,1.3,2.1,0.6,2.8c-1.4,1.5-1.8,3-1.3,4.4
	c0.3,0.7,1.3,1.8,3,3.4c5.8,5.5,8.5,12.5,8.2,21v13.6c3.4-0.6,4.8-2.1,4.3-4.5c-1.8-9.3,1.5-18.1,9.8-26.4c2.1-2.2,5-4.8,8.7-7.8
	c5-4,8.1-6.5,9.1-7.5c1.9-1.6,3.7-1.8,5.4-0.4c4.9,3.8,10.1,5.5,15.6,5.3c4.5-0.4,9.7-2.2,15.6-5.4l2.8-1.6
	C149.5,87.2,151,86.8,151.5,87z M139.5,97.3c-9,4.5-17.7,4.3-26.2-0.4c-2-1.3-3.9-1.3-5.7,0.1c-4.5,3.5-7.4,5.8-8.7,6.8
	c-3.2,2.8-6,5.8-8.2,9c2.2-0.9,5.3-2.5,9.4-5c3.7-2.3,6.7-3.7,9.1-4.3c-0.3,1.2-0.8,2.2-1.6,3c-0.3,0.2-1,0.6-2.3,1.3
	c-7.5,4.7-11.9,7.4-13.4,8.1c-4.7,2.2-6.9,6.3-6.4,12.4c2.3-1,5.9-3.4,10.8-7c4.5-3.2,8.2-5.4,11.2-6.5c-0.2,1.7-1.1,3.1-2.8,4.3
	l-16.1,11.2c-1.2,0.8-2,1.4-2.3,1.8c-0.6,0.9-0.7,1.8-0.3,3c0.4,1.3,1.1,2.2,2.3,2.7c0.4,0.1,1.5,0.2,3.4,0.3c1.2,0,2.8-0.8,4.7-2.3
	l15.1-11.1c0.9-0.9,1.8-1.5,2.4-1.8c0.9-0.6,2.1-0.6,3.4,0c-1.6,1.9-4.4,4.3-8.2,7.3c-4.2,2.9-7.3,5.5-9.2,7.5
	c7.4,0.2,11.6,0.3,12.6,0.4c3.9,0.4,7.3-1,10.2-4.3c1-1,4.7-4,11.1-9l1.1,1.1c-0.9,1.9-2.7,3.9-5.5,6c-3.1,2.3-5.2,4-6.3,5.3
	c4.2,0.6,6.8,0.7,8,0.4c1.1-0.3,3-1.7,5.5-4.1c2.3-2.3,4.6-3,7.1-2.1c-0.3,0.6-1.3,1.6-3,3c-1.2,1-1.8,2.3-1.7,3.7
	c2.9,0.7,6.8,1,11.5,1.1c6.3,0,10.2,0,11.7,0.1c1.3,0.1,2.2-0.9,2.6-2.8c2-12.9-2.8-25.3-14.4-37.1
	C147.3,96.1,143.6,95.4,139.5,97.3z M178.2,70.6c0.7-5.5,3.1-10.2,7.4-14.2s9.4-6.4,15.4-7.4c6.9-1.1,13,0.3,18.3,4.3l2.8,2.7
	c0.8,0.9,0.8,1.9,0,2.8c-0.5,0.4-1.2,0.4-2.1,0.1l-5.5-2.8c-4.5-2.4-9.6-2.7-15.5-1.1c-6.2,1.6-10.5,4.9-12.9,9.8
	c-0.5,1-0.5,2.2,0,3.4c1.1-0.2,2.8-1.4,5-3.6c2-1.9,4-2.8,6-2.7c-0.3,2.1-1.3,3.8-3.1,5.1c-0.9,0.9-2.5,1.9-4.7,3.1
	c-2,1.5-3.2,2.7-3.6,3.4c-1,1.4-1,3,0,4.8c1.4,0.5,3.3-0.3,5.5-2.3c2.2-1.8,4.2-2.5,6-2c-0.9,1.3-2.2,2.6-3.8,3.8
	c-0.9,0.8-2.2,1.8-4.1,3c-0.9,0.8-1.4,1.6-1.3,2.4c0.1,0.3,0.4,1,1,2.3c1.1,2.2,2.6,2.6,4.4,1.1c4.7-2.8,8.1-5.4,10-7.7
	c0.9-1.1,1.7-1.1,2.6,0c0.7,0.7,0.6,1.5-0.3,2.6c-0.7,0.7-2.5,1.9-5.5,3.8c-2.3,1.5-3.9,3-5,4.4c2.7,1.9,4.5,2.8,5.4,2.8
	c0.8,0,2.4-0.9,5-2.7c1.7-1.3,3.1-2.4,4.3-3.1c1.7-1.2,3.4-2.2,5.1-2.8c-0.3,1.9-1.6,3.6-3.8,5.1c-2.5,1.5-3.8,3-4.1,4.4
	c6.3,0.7,11.1-1.1,14.4-5.3c2.4-2.7,4.1-4.7,5.3-6.1c1.8-2.6,2.7-5.1,2.7-7.7c0-2-0.7-4.5-2.1-7.7c-1.6-3.3-2.5-5.9-2.6-7.7
	c4.5,2.1,7.5,5.1,9.2,9c1.8,3.9,1.8,7.9,0,11.9c-4.8,11.3-13.2,17.8-25.2,19.5c-4.8,0.8-10-0.3-15.6-3.3c-5.5-2.8-9.4-6.5-11.7-11.1
	C178.6,80.4,177.6,75.5,178.2,70.6z M61.5,52.8c-0.9-0.9-1.8-2-2.6-3.4c-0.8-1.6-1.4-2.8-1.8-3.7c1.1-0.5,2-0.8,2.7-0.9
	c0.9-0.1,1.9,0.3,2.8,1.1c6.6,5.8,8.6,13.2,6,22.3C65,81.2,55.8,89,41.2,91.7c-5.8,1.1-11.1,0.1-16.1-3c-4.6-3.2-8.1-7.9-10.4-13.9
	c-1.5-3.9-1.9-7.8-1.3-11.7c0.7-3.4,2.1-7.1,4.4-11.1c2.9-5.1,6.8-9,11.5-11.5c5-2.6,10.4-3.4,16.2-2.6c5.8,0.9,9.4,3.3,10.9,7.3
	c-1.9,0.4-3.9,0-6-1.1c-6.9-3.4-14.5-2.3-22.6,3.3c-3,2-4,4.4-3,7.3c1.2-2.6,3.4-4.1,6.4-4.5c-2,3.1-3.9,4.7-5.8,4.8
	c-0.4,0.9-1.4,2.1-3.1,3.4c-2.8,2.2-3.8,5.4-3,9.7c1.6-0.7,3.4-1.8,5.4-3.3c2.5-2,4-3.1,4.7-3.4l4.1-3.7c1.7-1.7,3.6-2.5,5.8-2.4
	c-1.6,2.6-3.9,5-7,7.3c-1.7,1.2-4.2,3-7.5,5.4c-2.9,2.4-4.5,4-4.5,4.8c-0.1,0.9,0.9,2.9,3.1,6.1c1.6-0.9,4.7-3.5,9.4-7.5
	c3.9-3.3,7.4-5.4,10.5-6.3c-1.4,1.8-3.9,4-7.5,6.7c-3.5,2.7-6,5-7.4,6.7c-0.4,0.5-1.2,1.1-2.4,2c-0.7,0.9-0.5,1.9,0.6,3
	c2.7,2.4,4.9,2.8,6.8,1.3l10.1-8.5c0.9-0.9,1.7-1.7,2.3-2.3c1.1-0.9,2.5-1.2,4-1L35.9,87.2l3.6-0.3c12.3-1.4,20.4-9.3,24.3-23.7
	C65,59,64.2,55.5,61.5,52.8z M28.2,102.1c-0.7-0.3-1.2-0.2-1.6,0.3c-1,1-2.7,2.6-4.8,4.7c-1.6,1.9-2.4,4-2.4,6.3
	c1.2-0.5,3-1.8,5.4-3.8c2.2-1.9,4.3-3.1,6.4-3.7c-0.9,2-4.1,5.2-9.4,9.7c-4,3.6-6,7.4-6.1,11.4c2.6-1.4,5.6-3.5,9.1-6.3
	c4.5-3.5,7.4-5.8,9-6.8c-0.9,2.8-2.7,5.5-5.5,7.8c-1.9,1.8-5,4.2-9.2,7.3c-0.5,0.3-1.1,0.8-2,1.6c-0.7,0.8-0.7,1.7-0.1,2.7
	c0.9,1.6,2.3,2.5,4.4,2.7c1.7,0.2,3.6-0.6,5.5-2.3L40,122.3c-0.2,2.7-1.7,5.3-4.4,7.5c-3.8,3.2-6,5.3-6.5,6.1
	c2.8,0.5,5.1,0.6,6.7,0.3c2.2-0.3,4.2-1.1,6-2.4c4.7-3.6,8.9-5.8,12.5-6.7c-0.8,1.4-2.2,2.9-4.4,4.4c-2.1,1.3-3.4,2.7-3.8,4
	c3,0.9,6.2,0,9.4-3c0.5-0.6,1-0.8,1.7-0.6c0.7,0.1,0.9,0.6,0.7,1.4c-0.3,1.3-0.2,2.2,0.3,2.6c0.4,0.4,1.1,0.6,2.3,0.7
	c2.2-0.1,3.9-0.1,5.1-0.1c2,0.1,3.7,0.3,5.3,0.7c0.2-1.4,0.1-3.4-0.4-5.8c-0.3-2.5-0.3-4.3-0.1-5.4c0.6-3.9,0-7.7-1.6-11.5
	c-1.1-2.6-3.1-5.9-6-10c-1.8-2.7-4.2-3.3-7.1-1.8c-8.7,4.5-17.2,4.6-25.4,0.4C29.6,102.9,29,102.6,28.2,102.1z M78.8,160
	c1.1-1.1,2.5-1.7,4.1-1.7c-0.4,2.2-1.8,4.4-4.3,6.7c-2.9,2.6-4.7,4.6-5.4,6.3c1.6-0.4,3.6-0.4,5.8,0c2.8,0.6,4.6,0.9,5.4,0.9
	c2.6,0,4.2-0.2,5-0.6c1.6-0.6,2.8-1.9,3.6-4c1.5-4.2,5.1-6.6,10.7-7.4c-0.9,1.6-2.6,3.4-5.1,5.3c-2.2,1.7-3.5,3.3-4,4.8
	c4.4,1.7,8.7,1.4,13.1-1c4.9-3.6,8.7-6.3,11.2-8.1c0.3,2.1-0.5,3.8-2.4,5.3c-2.2,1.5-3.3,2.7-3.4,3.6c4.5,1.9,8.7,1.6,12.8-0.9
	c1.4-0.8,5-3.8,10.7-9.2c-0.2,2.5-1.2,4.5-3,6.3c-2.2,2.2-3.4,3.6-3.7,4.1c4.2,2.7,8.2,2.8,12.1,0.4c4.4-3.4,7.6-6,9.8-7.8
	c0.6,1.9,0.1,3.7-1.6,5.3c-1.9,1.6-2.8,3-2.7,4.1c4.6,0.2,7.4,0.2,8.2,0.1c2.8-0.5,5.1-2,6.8-4.5c0.6-0.9,1.5-1.8,2.7-2.7
	c1.7-0.9,2.9-1.8,3.7-2.4c0.4,1.8-0.2,3.4-1.8,4.8c-1.8,1.6-2.7,2.8-2.7,3.7c7.4,1.7,12.7,0.2,16.1-4.5c0.4-0.6,0.9-0.9,1.6-0.9
	c0.6,0,1.1,0.3,1.6,1c0,0.6-0.5,1.4-1.4,2.4c-0.9,0.9-1.1,1.9-0.7,2.8c3.9,0.8,7.1,0.8,9.5,0.1c1.8-0.5,3-0.7,3.6-0.7
	c1.2,0,2.3,0.5,3.3,1.6c0.7,0.5,1.9,0.6,3.7,0.3c2-0.2,4.5-0.2,7.4-0.1c4.3,0.2,6.7,0.3,7.4,0.3l10.9,0.3c4.5,0.3,8.1,0.2,10.8-0.3
	c8-1,11.8-5.6,11.5-13.8c-0.1-4.4-0.8-7.3-2.1-8.7c-1.4-1.4-4.4-2.3-9-2.7c-46.3-3.2-73.8-5.1-82.6-5.5c-11.6-0.4-25.7-0.7-42.5-1
	c-9.3-0.2-23.4-0.4-42.4-0.6l-45.2-0.7c-7.1-0.2-12,0-14.6,0.4c-3.4,0.5-5.4,2.5-6,6.1c-0.4,3.3-0.1,6.2,0.7,8.5
	c1.6-0.8,3.7-2.5,6.4-5.3c2.6-2.6,4.9-4.3,7-5.3c-1.4,3.5-4.1,7-8,10.5C8.4,158,7,159.8,7,160.8c-0.1,1,1.1,3.3,3.6,6.7
	c3.6-4,6.3-7,8.2-9.1c3.4-3.4,7.3-5.5,11.5-6.1c-0.4,0.6-3.4,3.2-9.1,7.8c-3.5,2.9-5.9,5.8-7.3,8.7c4.2,1.2,7.4,1.8,9.8,1.7
	c3.5-0.3,6.6-1.8,9.4-4.7c4.6-4.6,9.7-8.2,15.1-10.8c-1.5,2.8-3.9,5.6-7.3,8.2c-4,2.9-6.4,5-7.4,6.1l0.6,0.9
	c4.8,0.6,8.7,0.5,11.7-0.3c3.9-1,7.1-3.3,9.7-6.8c1.3-1.9,2.6-3,3.7-3.4c0.9-0.4,2.5-0.6,5-0.6c-0.8,1.2-2.7,2.9-5.7,5.1
	c-2.7,1.8-4.4,3.7-5.1,5.7c10.2,2.5,18,0.2,23.2-6.8C78,161.2,78.7,160.2,78.8,160z M221.3,110.2c-3.7,2-7.8,2.8-12.4,2.6
	c-3-0.2-7.2-0.9-12.5-2.3c-2.9-0.7-4.8-0.9-5.5-0.6c-0.9,0.3-2,1.5-3.3,3.7c-1.8,2.8-2.7,5.5-2.8,8c1.4-0.1,3.3-1,5.7-2.8
	c2.3-1.8,4.4-2.7,6.4-2.8c-1.4,2.1-3.4,4-5.8,5.8c-1.4,1-3.4,2.5-6,4.3c-2.9,2.3-3.5,5.2-1.6,8.7c1.2-0.6,3.7-2.2,7.5-4.8
	c2.8-2.2,5.4-3.3,7.8-3.4c-2.6,2.4-6.5,5.6-11.9,9.7c-1.4,1-1.9,2.1-1.4,3.3c0.3,1,1.4,1.7,3.3,1.8c1.9,0.2,3.5-0.4,4.8-1.7
	c1.3-1.3,3.7-3.3,7.3-5.8c3.3-2.3,5.7-4.3,7.1-6c0.9-0.9,1.9-0.6,3.3,0.7c-1.2,1.9-3.7,4.1-7.4,6.5c-3.7,2.7-6.3,5-7.7,7.1
	c0.7,0,3.1,0,7.4,0.1c2.8,0,5.2-0.3,7-0.9l-0.1-0.1c2.7,0.9,5,1.3,6.7,1.1c2.3-0.2,4.2-1.4,5.8-3.6l1.6-2.3c0.8-0.7,1.6-0.6,2.4,0.1
	c0.7,0.7,0.6,1.4-0.1,2.3c-1,1-1.6,1.8-1.6,2.1l0.4,1.3l4.7,0.3c2.5,0.3,3.5-0.8,3.1-3.1c-0.9-12-3.6-21.4-8.1-28
	C224,110,222.7,109.6,221.3,110.2z M220.4,132.5c0.5,0.7,0.3,1.3-0.6,2l-9.4,6.5c0.5-1.8,1.6-3.7,3.3-5.7c1.8-2.3,3.4-3.6,4.8-3.8
	C219.3,131.4,219.9,131.7,220.4,132.5z"/>
</svg>
