<?xml version="1.0" encoding="utf-8"?>
<!-- Generator: Adobe Illustrator 22.1.0, SVG Export Plug-In . SVG Version: 6.00 Build 0)  -->
<svg version="1.1" id="Layer_1" xmlns="http://www.w3.org/2000/svg" xmlns:xlink="http://www.w3.org/1999/xlink" x="0px" y="0px"
	 viewBox="0 0 304.6 196.2" style="enable-background:new 0 0 304.6 196.2;" xml:space="preserve">
<style type="text/css">
	.st0{fill:#02D7A8;}
	.st1{fill:#020123;}
</style>
<circle class="st0" cx="152.3" cy="98.1" r="93.7"/>
<path class="st1" d="M161.7,55.1c1.5,0.6,2.4,1,2.9,1.2l17.9,8.6c4.3,1.9,6.8,4.5,7.6,7.6c0.7,2.4,1.5,3.9,2.5,4.7
	c1.2,0.9,3,1,5.4,0.2c0.7-0.1,1.2-0.1,1.7,0.2c0.6,0.5,0.9,1,1,1.5c0.2,2.3-0.6,3.5-2.4,3.7c-3.8,0.3-7.8,0.5-11.8,0.5
	c-6.7-0.2-12.7,0.3-18.3,1.5c-8.2,1.6-18.6,2.3-31.1,2c-5-0.1-8.5,0.6-10.7,2c-2,1.4-3.6,4-4.7,8c-2,7.6,0.5,13.1,7.6,16.7
	c7.1,3.3,16.4,4.6,27.7,4.1c3.5-0.6,6.1-1,7.8-1.2c3.2-0.5,5.7-0.2,7.6,0.8c1.9,1.1,3.3,3.2,4.2,6.3c0.6,3.6,1.2,6.1,2,7.6
	c2.6,5.9,5.7,9.6,9.3,11.3c3.6,1.7,8.6,1.7,14.9,0c9.8-2.5,17.1-6,21.8-10.5c1,1.1,1.4,2.1,1,3c-0.3,0.3-1,0.9-1.9,1.7
	c-7.9,8.6-18.4,13-31.5,13.4c-7.1,0.2-12.1-2.7-15.1-8.8c-0.1-0.3-1.1-1.9-3-4.7c-2.6,2.7-4.8,6.8-6.6,12.2
	c-2.1,6.3-3.8,10.5-5.1,12.7c5,2.1,8.3,3.6,10.2,4.2c1.9,0.6,3.4,1,4.4,1.4c1.8,0.5,3.3,0.5,4.4,0.2c6.4-2.3,13.5-3,21.2-2.4
	c5.4,0.6,12.3,1.9,20.6,4.1c3,0.8,5.5,0.7,7.4-0.2c1.9-0.8,3.7-2.5,5.4-5.1c5.1-7.7,12.1-20.2,21.2-37.6c0.8-2,1.4-3.4,1.7-4.2
	c0.7-1.4,1.5-1.6,2.4-0.8c1.1,0.9,1.6,1.5,1.5,1.9c-1,3.6-2,6.2-2.9,7.8L240.4,166c-0.2,0.3-1,2.1-2.2,5.4c-0.7,2.1-1.8,3.3-3.4,3.6
	c-4.8,1-9.9,0.7-15.2-0.8c-6.5-2.3-11.8-3.6-15.9-4.1c-5.8-0.7-11.2-0.2-16.4,1.5c-5,1.7-10.3,0.8-15.9-2.5
	c-3.6-2.3-6.4-3.2-8.3-2.9c-1.9,0.2-4.3,2-7.1,5.2c-2.6,3.2-4.7,4.8-6.3,4.9c-1.7,0.2-4.4-0.8-8.1-3c-4.4-2.7-9.8-5-16.1-6.9
	c-1.7-0.7-7.3-2.3-16.9-4.7c-6.1-1.7-13.4-4.3-22-7.8c-4.9-1.9-12.1-4.9-21.8-8.8L19.6,127c-3.7-1.4-6.8-2.7-9.1-4.1
	c-4.6-2.3-7.7-5.1-9.3-8.5c-1.4-3.3-1.5-7.5-0.5-12.7c1.2-6,3.3-12.9,6.3-20.8c1.8-4.6,4.5-11.5,8.1-20.6
	c2.4-6.2,7.4-18.4,15.2-36.7c2-4.9,2.9-9,2.7-12.4c-0.1-0.8,0.1-1.5,0.7-2c0.6-0.7,1.2-1,2-0.8c1,0,1.8,0.4,2.4,1.2
	c0.6,0.8,0.7,1.7,0.5,2.7c-1.8,6.4-3.4,11.1-4.7,14C29,36.7,21.7,54.9,12,80.9c-0.6,1.1-0.9,2-1,2.5c-0.2,1.1,0,2.2,0.7,3.2
	c1.8-0.8,3.6-2.1,5.2-3.9c1.9-2.1,3.4-3.7,4.6-4.6c2,1,2.3,2.3,0.7,3.7c-5.2,5.1-8.4,8-9.6,8.6c-4.9,3.7-7.2,9.8-6.9,18.1
	c3.3-1.4,7.3-4.3,12.2-8.8c4.7-4.4,8.6-7.2,11.5-8.5c-1.8,3.4-5.2,7.1-10.3,11.2c-5.6,4.5-9.3,8-11,10.5c0.6,1.4,1.5,2.5,2.9,3.4
	c1.6,0.8,2.8,1.4,3.6,1.9c1.5,0.9,2.9,1.2,4.2,1c1-0.2,2.2-1,3.6-2.4c0.8-0.8,6.3-5.6,16.6-14.6c0.1,2.7-0.7,5-2.4,6.8
	c-0.9,1-2.4,2.3-4.6,3.9c-0.3,0.5-1.9,1.6-4.7,3.6c-2.1,1.4-3.5,2.8-4.1,4.4c5.3,3.6,9.4,5.4,12.2,5.4c2.8,0,6.7-1.8,11.7-5.4
	c2.6-1.8,4.2-3.2,4.7-4.1c1.2-2.6,2.6-3,4.2-1.4c0.8,0.9,0.3,2.1-1.5,3.7l-12.4,8.8c1.7,1.7,4.1,3.1,7.1,4.2
	c3.9,1.5,6.3,2.4,7.1,2.7c1.4,0.7,3,0.2,5.1-1.4l11.5-8.5c0.1,2.5-1.2,4.7-3.9,6.6c-3,2.3-4.7,4-5.1,5.2c4.7,4.3,9.6,5.5,14.7,3.6
	c1.6-0.7,6.1-3.7,13.7-9.1c-0.7,3-2.5,5.5-5.6,7.4c-3.3,2.1-5.1,3.7-5.6,4.7c0.2,1,0.7,1.8,1.5,2.4c0.9,0.3,1.6,0.6,2,0.7
	c4.6,2,7.8,2.9,9.6,2.7c1.8-0.3,4.5-2.4,8-6.1c1.7-1.7,2.8-2.7,3.4-3c0.7-0.5,2.1-1,4.2-1.5c-0.6,1.7-1.6,3.3-3,4.7l-4.1,3.4
	c-0.5,0.6-1.1,1.2-2,2c-0.8,0.8-1.1,1.5-1,2.2c0.2,1.2,1,2,2.2,2.4c1.4,0.3,2.4,0.7,3,1c3,1.5,6.1,1.7,9.1,0.8
	c2.5-0.6,5.2-2.1,8.3-4.6c0.2-0.2,1-1.1,2.4-2.7c1-1.1,2-1.8,3-2c-0.2,1.9-0.7,3.3-1.4,4.2c-0.7,0.9-3,3.1-6.9,6.6
	c0.6,0.9,0.9,1.4,1,1.4c3.3,1.9,6.5,2.4,9.8,1.5c2.7-0.7,5.6-2.5,8.6-5.4c1.9-1.9,3.4-3.4,4.6-4.6c2-1.9,4.2-3.2,6.6-3.9
	c-1.1,3-3.6,6-7.3,8.8c-4.2,3.2-6.8,5.6-7.8,7.3c2.9,2.1,4.9,3.2,5.8,3.2c0.9,0.1,2.7-0.8,5.4-2.7c1.2-1.2,2.3-2.1,3-2.7
	c1.4-1,2.8-1.2,4.4-0.7c-0.1,1.6-1,2.9-2.7,4.1c-2.1,1.2-3.3,2.1-3.6,2.7c-0.8,1-1,1.8-0.7,2.4c0.5,0.9,1.5,1.4,3.2,1.4
	c1.2,0,2.3-0.6,3-1.7c2.4-3.4,4.2-6.1,5.4-8.1c2-3,3.3-5.9,3.7-8.6c1-4.4,3.6-10.3,7.8-17.6c1.7-2.8,2.1-5.1,1.4-6.9
	c-0.9-1.8-2.9-2.8-5.9-3c-6.2-0.6-12.7-0.6-19.5-0.2c-6.1,0.3-12.9-1.4-20.5-5.1c-3.7-1.7-6.4-4.2-8-7.6c-1.8-3.5-2.3-7.2-1.5-11.2
	c0.6-3.9,2.3-8.2,5.1-12.7c1.8-2.8,4.4-4.2,7.8-4.1h4.6c6.7,0.5,14.9,0.1,24.9-1c10.8-1.4,19-2.3,24.5-2.9c1.8,0,2.8-0.5,3-1.4
	c0.6-1.5,0.1-2.7-1.5-3.7c-12.5-7.9-20.7-12.7-24.5-14.4l-39.3-17.6c-13.8-6.3-34-16.6-60.6-30.8c-3.6-1.7-5.9-2.6-6.8-2.9
	c-2.6-0.8-5-0.7-7.3,0.2c-2.9,1.1-4.7,0.6-5.4-1.5C40,4.7,41.1,2.8,44,1.1c2.5-1.2,5.1-1.4,8-0.5C53.5,1,55.8,2.1,58.9,4
	c13.8,8.2,35,19.1,63.6,32.7c6.1,3,10.7,5.3,13.7,6.8c5.4,2.6,10.1,4.6,14,5.9c1.7,0.9,3,1.4,3.9,1.4c1.4,0.2,2.6-0.5,3.7-2
	c0.8-1,3-1.9,6.8-2.5c4.4-0.9,10.9-1.9,19.5-2.9c8.7-1,15.2-2,19.6-2.9c10.7-2.1,19.8,1.6,27.2,11.2c3.3,3.8,5.5,7.1,6.8,9.8
	l24.5,48.4c1.5,2.7,1.6,5.2,0.3,7.6c-1.5,0.3-2.5,0.1-3.2-0.8c-0.2-0.3-0.7-1.3-1.4-2.9c-2.1-6.9-5.2-13.1-9.3-18.8
	c-2.8-3.9-5.5-9.4-8.1-16.4c-1.4-4.4-5.1-11.1-11.2-20C223.1,48.2,214,44,202,46.1c-4.4,0.8-10.4,1.5-17.9,2
	c-8.5,0.8-14.4,1.5-17.8,2c-1.4,0.2-3.4,0.8-6.1,1.9C160.2,53.5,160.7,54.5,161.7,55.1z M302.2,154.5c-2.7,5.2-6.5,11.5-11.3,19
	c-7.1,10.5-11.2,16.6-12.2,18.3c-2.3,4.1-6,5.4-11.3,3.9c-6.7-2.1-10.8-3.6-12.5-4.2c-4.6-1.9-8.5-4.2-11.5-6.8
	c-1.8-1.6-2.8-3-3-4.2c-0.3-1.4,0.2-3,1.5-4.9c11.5-18.6,20.5-34.9,27.1-48.9c1.5-2.7,3-3.7,4.7-2.9c2.3,0.9,5.9,2,11,3.4
	c4.7,1.2,8.3,2.5,10.8,3.7c6.5,3.3,9.6,8,9.1,14.2C304.5,148.1,303.7,151.3,302.2,154.5z M299.6,145.1c0.5-3.2-0.3-5.4-2.2-6.6
	c-5.2-3-8.5-4.9-10-5.6c-3.8-1.7-7.4-2.6-10.8-2.9c-2.6,0-4.5,1.2-5.6,3.6l-15.4,28.3c-0.5,0.5-1.1,1.2-2,2.2
	c-0.6,1.1-0.5,2.1,0.2,3c1.8-0.9,4.8-3,9-6.3c3.7-3,6.9-5.1,9.6-6.3c-0.5,1.6-1.1,2.9-2,4.1c-0.1,0.1-1.1,0.8-2.9,2.2
	c-6.1,4.6-9.4,7-9.8,7.3c-3.7,2.9-6.6,6-8.6,9.1c-0.3,0.5-0.8,1.1-1.5,2c-0.3,0.8-0.2,1.6,0.5,2.4c1.5,1.4,3.2,1.3,5.1-0.2
	l22.2-16.2c-1.5,4.2-4.6,7.9-9.3,11.2c-5.6,3.8-9.2,6.9-10.8,9.3c6.9-0.1,12.1-2.7,15.6-7.8c1.5-1.5,2.8-1.6,3.9-0.5
	c1.1,1,0.9,2.2-0.7,3.6c-0.2,0.2-1.7,1.2-4.6,3c-1.7,1.1-2.8,2.4-3.4,3.9c3.7,1.4,6.1,1.9,7.1,1.5c1-0.2,2.4-1.7,4.2-4.6
	c6.4-9,12.6-18.8,18.6-29.4C297.8,152.1,299.1,148.7,299.6,145.1z M82.2,32.4c1.6,0.7,2.1,1.6,1.5,2.7c-0.3,0.7-0.8,1.1-1.4,1.4
	c-0.7,0.1-1.2,0-1.7-0.3c-2.4-1.8-5.9-3.6-10.5-5.4c-5.2-2-8.7-3.6-10.7-4.7l0.8-2L82.2,32.4z M91.3,39
	c15.6,8.5,27.4,14.4,35.5,17.9c1.2,0.2,1.6,0.9,1,2c-0.8,1.7-1.7,2.1-2.9,1.2l-11.8-6.6c-1.9-0.9-9.6-5.1-23-12.7L91.3,39z
	 M110,66.7c0.4,0.6,0.8,1.3,1.1,2.2c0.3,0.9,0.4,1.8,0.4,2.9c-0.1,1.1-0.3,2.2-0.8,3.3c-0.5,1.1-1.3,2.2-2.4,3.3
	c-0.4,0.6-0.8,1-1.3,1.1c-0.5,0.1-0.9,0-1.2-0.2c-0.3-0.2-0.5-0.6-0.6-1.2s0.2-1.2,0.8-1.9c0.8-0.8,1.3-1.5,1.5-2.3
	c0.2-0.8,0.3-1.4,0.2-2.1c-0.1-0.6-0.2-1.2-0.5-1.6c-0.3-0.4-0.6-0.8-0.9-1c-1.3-0.7-2.7-0.7-4.2,0.1s-3.1,2.2-4.8,4.3
	c-1.7,2.1-3.5,4.7-5.3,8c-1.8,3.3-3.6,7.1-5.5,11.5c0-0.1,0-0.1-0.1,0c0.2,0.5,0.6,1.5,1.2,2.9c0.6,1.5,1.1,3.1,1.6,5
	c0.5,1.9,0.9,4,1.1,6.1c0.3,2.2,0.2,4.2-0.2,6l0,0.2c-0.3,0.4-0.5,0.7-0.7,0.8l0,0.2l-0.4,0c-0.2,0.1-0.5,0.1-0.7,0l-0.3-0.1
	c-0.1,0.1-0.2,0.1-0.4,0c-0.2-0.1-0.3-0.2-0.4-0.2l-0.1-0.1c-0.1-0.2-0.2-0.3-0.3-0.4c-0.1-0.1-0.2-0.3-0.2-0.5l-0.2-0.4l0.2-0.5
	c-0.3-1.5-0.4-2.9-0.6-4c-0.1-1.1-0.3-2.1-0.5-3.1c-0.2-1-0.5-1.9-0.8-2.9c-0.3-1-0.8-2.1-1.3-3.5c-2.3,3.6-4.5,5.9-6.5,6.9
	c-2,1-3.7,1.2-5.2,0.5c-1.5-0.7-2.7-1.9-3.7-3.8c-1-1.9-1.6-3.9-1.9-6.1c-0.3-2.2-0.2-4.4,0.2-6.6c0.4-2.2,1.3-3.8,2.6-4.9
	c1.3-1.1,3-1.6,5.2-1.3c2.2,0.3,4.9,1.7,8.1,4.2c2-4.1,4.1-7.8,6.1-10.9c2-3.1,3.4-5.4,4.3-6.6c0.8-1.1,2-2.2,3.5-3.3
	c1.5-1.1,3.1-1.9,4.8-2.5c1.7-0.6,3.4-0.7,5.1-0.4C107.3,64.1,108.8,65.1,110,66.7z M80.1,92.7c-1.8-1.8-3.3-3-4.6-3.3
	c-1.3-0.4-2.3-0.3-3,0.3c-0.8,0.6-1.3,1.4-1.6,2.6c-0.3,1.2-0.4,2.3-0.3,3.5c0.1,1.2,0.4,2.2,0.9,3.1c0.5,0.9,1.1,1.4,1.9,1.4
	c0.8,0.1,1.8-0.5,2.9-1.6C77.5,97.7,78.8,95.7,80.1,92.7z M97.2,86c-2.6-0.5-4.8-1-6.7-1.5c-1.9-0.5-3.5-1.1-4.9-1.6
	c-1.4-0.6-2.6-1.1-3.6-1.6c-1-0.5-2-0.9-2.9-1.2c-0.5-0.2-0.9-0.5-1.1-0.9c-0.2-0.4-0.3-0.8-0.2-1.1c0.1-0.3,0.3-0.6,0.7-0.8
	c0.4-0.2,0.9-0.3,1.6-0.1c1.5,0.3,2.8,0.7,4,0.9c1.2,0.3,2.5,0.6,3.8,1.1c1.4,0.4,2.9,1,4.7,1.7c1.7,0.7,3.9,1.6,6.3,2.7
	c0.6,0.3,0.9,0.6,1,1c0.1,0.4,0.1,0.7-0.1,0.9c-0.2,0.3-0.5,0.5-1,0.6C98.3,86.2,97.8,86.2,97.2,86z"/>
</svg>
