<?xml version="1.0" encoding="utf-8"?>
<!-- Generator: Adobe Illustrator 22.1.0, SVG Export Plug-In . SVG Version: 6.00 Build 0)  -->
<svg version="1.1" id="Layer_1" xmlns="http://www.w3.org/2000/svg" xmlns:xlink="http://www.w3.org/1999/xlink" x="0px" y="0px"
	 viewBox="0 0 21.4 17.4" style="enable-background:new 0 0 21.4 17.4;" xml:space="preserve">
<style type="text/css">
	.st0{fill:#020122;}
</style>
<path class="st0" d="M21.4,2.1c-0.8,0.3-1.6,0.6-2.5,0.7c0.9-0.5,1.6-1.4,1.9-2.4C19.9,0.8,19,1.2,18,1.4C17.2,0.5,16.1,0,14.8,0
	c-2.4,0-4.4,2-4.4,4.4c0,0.3,0,0.7,0.1,1c-3.6-0.2-6.9-1.9-9-4.6C1.1,1.4,0.9,2.2,0.9,3c0,1.5,0.8,2.9,1.9,3.6c-0.7,0-1.4-0.2-2-0.5
	c0,0,0,0,0,0.1c0,2.1,1.5,3.9,3.5,4.3c-0.4,0.1-0.8,0.2-1.2,0.2c-0.3,0-0.6,0-0.8-0.1c0.6,1.7,2.2,3,4.1,3C5,14.8,3.1,15.5,1,15.5
	c-0.4,0-0.7,0-1-0.1c1.9,1.2,4.2,2,6.7,2c8.1,0,12.5-6.7,12.5-12.5c0-0.2,0-0.4,0-0.6C20,3.7,20.8,2.9,21.4,2.1z"/>
</svg>
