<?xml version="1.0" encoding="utf-8"?>
<!-- Generator: Adobe Illustrator 22.1.0, SVG Export Plug-In . SVG Version: 6.00 Build 0)  -->
<svg version="1.1" id="Layer_1" xmlns="http://www.w3.org/2000/svg" xmlns:xlink="http://www.w3.org/1999/xlink" x="0px" y="0px"
	 viewBox="0 0 30.3 26" style="enable-background:new 0 0 30.3 26;" xml:space="preserve">
<style type="text/css">
	.st0{fill:#020122;}
</style>
<g transform="translate(0,-952.36218)">
	<path class="st0" d="M5.6,952.4c-2.9,0-5.2,2.3-5.2,5.2s2.3,5.2,5.2,5.2s5.2-2.3,5.2-5.2S8.5,952.4,5.6,952.4z M16.9,952.4
		c-2.9,0-5.2,2.3-5.2,5.2s2.3,5.2,5.2,5.2s5.2-2.3,5.2-5.2S19.8,952.4,16.9,952.4z M5.6,954.1c1.9,0,3.5,1.5,3.5,3.5
		S7.6,961,5.6,961s-3.5-1.5-3.5-3.5S3.7,954.1,5.6,954.1z M16.9,954.1c1.9,0,3.5,1.5,3.5,3.5s-1.5,3.5-3.5,3.5s-3.5-1.5-3.5-3.5
		S15,954.1,16.9,954.1z M0.9,963.6c-0.5,0-0.9,0.4-0.9,0.9v13c0,0.5,0.4,0.9,0.9,0.9h20.8c0.5,0,0.9-0.4,0.9-0.9v-2.3l6.7,1.9
		c0.5,0.1,1.1-0.3,1.1-0.8v-10.4c0-0.7-0.6-1-1.1-0.8l-6.7,1.9v-2.3c0-0.4-0.4-0.9-0.9-0.9H0.9z M1.7,965.4h19.1v11.3H1.7V965.4
		L1.7,965.4z M28.6,966.9v8.1l-6.1-1.7v-4.8L28.6,966.9L28.6,966.9z"/>
</g>
</svg>
