<?xml version="1.0" encoding="utf-8"?>
<!-- Generator: Adobe Illustrator 22.1.0, SVG Export Plug-In . SVG Version: 6.00 Build 0)  -->
<svg version="1.1" id="Layer_1" xmlns="http://www.w3.org/2000/svg" xmlns:xlink="http://www.w3.org/1999/xlink" x="0px" y="0px"
	 viewBox="0 0 30 30" style="enable-background:new 0 0 30 30;" xml:space="preserve">
<style type="text/css">
	.st0{fill:#FFFFFF;}
</style>
<g>
	<path class="st0" d="M22.5,7.3c-0.7-0.5-1.7-0.4-2.3,0.3L12.4,18l-2.7-2.7c-0.6-0.6-1.7-0.6-2.3,0c-0.6,0.6-0.6,1.7,0,2.3l5.4,5.4
		L22.9,9.6C23.4,8.9,23.3,7.9,22.5,7.3z"/>
</g>
<g>
	<path class="st0" d="M15.1,30c-8.3,0-15-6.7-15-15c0-8.3,6.7-15,15-15s15,6.7,15,15C30.1,23.3,23.3,30,15.1,30z M15.1,1.4
		C7.6,1.4,1.5,7.5,1.5,15s6.1,13.6,13.6,13.6c7.5,0,13.6-6.1,13.6-13.6S22.6,1.4,15.1,1.4z"/>
</g>
</svg>
