<?xml version="1.0" encoding="utf-8"?>
<!-- Generator: Adobe Illustrator 22.1.0, SVG Export Plug-In . SVG Version: 6.00 Build 0)  -->
<svg version="1.1" id="Layer_1" xmlns="http://www.w3.org/2000/svg" xmlns:xlink="http://www.w3.org/1999/xlink" x="0px" y="0px"
	 viewBox="0 0 33 20.5" style="enable-background:new 0 0 33 20.5;" xml:space="preserve">
<style type="text/css">
	.st0{fill:#FFFFFF;stroke:#FFFFFF;stroke-miterlimit:10;}
</style>
<g>
	<path class="st0" d="M14.9,15.2c-0.9,0-1.7,0.2-2.4,0.6c-1.5,0.8-2.5,2.4-2.5,4.2h1.1l0,0c0-2.1,1.7-3.7,3.7-3.7h3.2
		c2.1,0,3.7,1.7,3.7,3.7l0,0h1.1c0-1.8-1-3.4-2.5-4.2c-0.7-0.4-1.5-0.6-2.4-0.6L14.9,15.2z"/>
	<path class="st0" d="M16.5,14c2.3,0,4.3-1.9,4.3-4.3c0-0.6-0.1-1.1-0.3-1.6c-0.6-1.6-2.2-2.7-4-2.7s-3.3,1.1-4,2.7
		c-0.2,0.5-0.3,1-0.3,1.6C12.2,12.1,14.2,14,16.5,14z M16.5,6.6c1.7,0,3.2,1.4,3.2,3.1s-1.4,3.1-3.2,3.1s-3.2-1.4-3.2-3.1
		S14.8,6.6,16.5,6.6z"/>
	<path class="st0" d="M27.7,10.1h-3.2c-0.6,0-1.2,0.1-1.7,0.3v1.2c0.5-0.3,1.1-0.4,1.7-0.4h3.2c2.1,0,3.7,1.7,3.7,3.7h0.6h0.6
		C32.5,12.3,30.3,10.1,27.7,10.1z"/>
	<path class="st0" d="M21.8,4.8c0,2.3,1.9,4.3,4.3,4.3s4.3-1.9,4.3-4.3s-1.9-4.3-4.3-4.3S21.8,2.4,21.8,4.8z M29.2,4.8
		c0,1.7-1.4,3.1-3.1,3.1c-1.7,0-3.2-1.4-3.2-3.1s1.4-3.1,3.2-3.1C27.8,1.6,29.2,3,29.2,4.8z"/>
	<path class="st0" d="M5.3,11.3h3.2c0.6,0,1.2,0.2,1.7,0.4v-1.2c-0.5-0.2-1.1-0.3-1.7-0.3H5.3c-2.7,0-4.8,2.2-4.8,4.8h0.6h0.6
		C1.6,12.9,3.3,11.3,5.3,11.3z"/>
	<path class="st0" d="M2.7,4.8C2.7,7.1,4.6,9,6.9,9s4.3-1.9,4.3-4.3S9.3,0.5,6.9,0.5S2.7,2.4,2.7,4.8z M10.1,4.8
		c0,1.7-1.4,3.1-3.2,3.1c-1.7,0-3.1-1.4-3.1-3.1s1.4-3.1,3.1-3.1C8.7,1.6,10.1,3,10.1,4.8z"/>
</g>
</svg>
