<?xml version="1.0" encoding="utf-8"?>
<!-- Generator: Adobe Illustrator 22.1.0, SVG Export Plug-In . SVG Version: 6.00 Build 0)  -->
<svg version="1.1" id="Layer_1" xmlns="http://www.w3.org/2000/svg" xmlns:xlink="http://www.w3.org/1999/xlink" x="0px" y="0px"
	 viewBox="0 0 444.5 132" style="enable-background:new 0 0 444.5 132;" xml:space="preserve">
<style type="text/css">
	.st0{fill:#020122;}
	.st1{fill:#FFB404;}
	.st2{fill:#F92251;}
	.st3{fill:#02D8A8;}
</style>
<g>
	<g>
		<path class="st0" d="M125.6,82.8v3.1h-18.2v45.5h-3.8V85.9H85.3v-3.1H125.6z"/>
		<path class="st0" d="M149.8,82.2c7.2,0,13.3,2.4,18.3,7.3c5,4.8,7.5,10.7,7.5,17.7c0,6.9-2.5,12.8-7.5,17.7
			c-5,4.8-11.1,7.3-18.3,7.3c-7.2,0-13.2-2.4-18.2-7.3c-5-4.8-7.5-10.7-7.5-17.7c0-7,2.5-12.9,7.5-17.7
			C136.6,84.6,142.7,82.2,149.8,82.2z M150,128.6c6.1,0,11.2-2.1,15.3-6.2c4.2-4.1,6.2-9.2,6.2-15.2c0-6-2.1-11.1-6.2-15.3
			c-4.2-4.1-9.3-6.2-15.3-6.2c-6.1,0-11.2,2.1-15.4,6.2c-4.2,4.1-6.3,9.2-6.3,15.3c0,6,2.1,11.1,6.3,15.2
			C138.8,126.5,143.9,128.6,150,128.6z"/>
		<path class="st0" d="M225.5,86.3v4.2c-5.8-3.3-11.5-4.9-17.2-4.9c-6.1,0-11.3,2-15.3,6.1c-4.1,4.1-6.1,9.2-6.1,15.3
			c0,6.1,2,11.3,6.1,15.3s9.5,6.1,16.5,6.1c5,0,9.5-1,13.3-3v-13.1h-10.3v-3.1h14.1v18.6c-5.7,2.7-11.5,4.1-17.3,4.1
			c-7.5,0-13.8-2.4-18.9-7.2c-5-4.8-7.6-10.7-7.6-17.9c0-7.1,2.5-13,7.4-17.7c5-4.7,11.2-7.1,18.7-7.1
			C214,82.2,219.5,83.6,225.5,86.3z"/>
		<path class="st0" d="M262.7,82.8v3.1h-22.8v19.4h22.2v3.2h-22.2v19.7h23.3v3.1h-27.1V82.8H262.7z"/>
		<path class="st0" d="M305.9,82.8v3.1h-18.2v45.5h-3.8V85.9h-18.2v-3.1H305.9z"/>
		<path class="st0" d="M351.8,82.8v48.6h-3.8v-23h-32.4v23h-3.8V82.8h3.8v22.4h32.4V82.8H351.8z"/>
		<path class="st0" d="M389.7,82.8v3.1h-22.8v19.4h22.2v3.2h-22.2v19.7h23.3v3.1h-27.1V82.8H389.7z"/>
		<path class="st0" d="M398,82.8h12.5c5.2,0,9.2,1.1,12,3.4c2.8,2.3,4.1,5.3,4.1,9.2c0,5.6-3.1,9.6-9.3,11.8
			c1.6,0.8,3.8,3.2,6.5,7.4l11,16.8h-4.4l-8.5-13.3c-2.8-4.5-5-7.2-6.6-8.3c-1.6-1.1-3.9-1.7-6.9-1.7h-6.6v23.3H398V82.8z
			 M401.8,85.9v19h8.1c4.1,0,7.2-0.8,9.4-2.5c2.2-1.7,3.3-4,3.3-7c0-3-1.1-5.3-3.3-7c-2.2-1.7-5.4-2.5-9.5-2.5H401.8z"/>
	</g>
	<g>
		<g>
			<polygon class="st1" points="73.2,0.5 0,130.6 28.3,130.6 			"/>
			<polygon class="st2" points="29.9,130.6 53.2,130.6 75.9,0.5 			"/>
			<polygon class="st3" points="54.9,130.6 77,130.6 77,2.4 			"/>
		</g>
	</g>
	<g>
		<path class="st0" d="M205.2,42.8c0.5-0.7,1-1.4,1.4-2.1c7.1-12.6,14.2-25.1,21.3-37.7c1.5-2.7,2.5-3,5.3-1.6
			c5.1,2.5,7.6,8,6.2,13.4c-4.6,17.6-9.2,35.3-13.8,52.9c-0.7,2.5-1.3,2.9-3.8,1.9c-5.4-2.1-7.7-6.6-6.3-12.2
			c1.8-7,3.6-14.1,5.5-21.1c0.2-0.7,0.3-1.4,0.4-2.1c-0.2-0.1-0.4-0.2-0.5-0.3c-0.5,0.7-1,1.3-1.4,2c-4.3,8.1-8.6,16.3-12.9,24.4
			c-1.3,2.5-1.8,2.8-4.5,1.9c-1.6-0.5-3.1-1.3-4.6-2.2c-1.8-1.1-2.7-2.7-2.7-4.9c0-5.8-0.2-11.6-0.3-17.4c0-0.7-0.1-1.4-0.2-2.1
			c-0.2,0-0.4-0.1-0.6-0.1c-0.3,0.7-0.7,1.3-0.9,2c-3.1,10.1-6.3,20.1-9.4,30.2c-0.8,2.5-1.6,2.9-4,1.8c-2.6-1.2-4.9-3-6-5.6
			c-0.6-1.5-0.8-3.5-0.3-5.1c5.8-18.6,11.8-37.2,17.8-55.8c0.8-2.4,2-3,4.4-2.2c5.4,1.6,9,6.3,9.1,11.9c0.1,9.3,0.2,18.7,0.3,28
			c0,0.6,0.1,1.2,0.1,1.8C204.8,42.6,205,42.7,205.2,42.8z"/>
		<path class="st0" d="M410.2,33.3c-0.3,0.7-0.7,1.4-0.9,2.1c-2.9,10.8-5.9,21.7-8.8,32.5c-0.6,2.3-1.3,2.6-3.5,1.8
			c-2.9-1.1-5.3-3-6.6-5.8c-0.6-1.4-0.8-3.4-0.4-4.9c5.2-18.8,10.5-37.6,15.7-56.4c0.5-1.9,1.5-2.4,3.3-2c5.2,1.2,8.5,4.7,9.4,10
			c1.4,8.3,2.8,16.5,4.2,24.8c0.1,0.8,0.4,1.5,0.7,2.2c0.2,0,0.4,0.1,0.6,0.1c0.3-0.7,0.8-1.4,1-2.2c2.9-10.8,5.8-21.7,8.7-32.5
			c0.7-2.7,1.5-3.1,4.1-2c5.5,2.3,8,7.6,6.3,13.3c-5.2,17.8-10.5,35.6-15.6,53.5c-0.6,2.1-1.6,2.5-3.5,2.2c-4-0.7-6.9-3.1-7.7-7.1
			c-1.9-9-3.7-18.1-5.6-27.2c-0.2-0.8-0.4-1.5-0.5-2.3C410.7,33.4,410.5,33.3,410.2,33.3z"/>
		<path class="st0" d="M374.8,50.7c-1.6,0.1-2.9,0-4.3,0.3c-4.2,0.8-7.6-5.3-6.8-8.1c0.2-0.7,1.1-1.6,1.8-1.7
			c4.1-0.9,8.3-1.6,12.4-2.2c1.1-0.2,2.5,0.2,3.5,0.8c4.3,2.4,6.9,9.5,5.3,14.1c-2.9,8.7-12.7,16.2-21.8,16.9
			c-8.6,0.6-16-5.4-18.1-14.5c-1.3-5.9-0.6-11.7,0.8-17.4c2.7-11.1,7.2-21.4,14.7-30.2c3.9-4.5,8.4-8.2,14.7-8.7
			c6.3-0.5,13.6,3.9,16.5,9.5c1.3,2.5,1.4,5.1,0.5,7.7c-1.6,4.8-3.2,9.5-4.9,14.3c-0.8,2.1-2,2.6-4.2,1.7c-4.6-1.8-7.1-6.5-5.7-11.4
			c0.8-2.8,2-5.5,2.9-8.3c0.4-1.2,0.2-2.6,0.2-3.9c-1.4,0.4-3.2,0.4-4,1.3c-3.2,3.4-6.4,6.9-8.9,10.8c-5.7,9-9.7,18.7-11,29.4
			c-0.2,2.1-0.2,4.2,0.3,6.3c0.5,2.3,2.2,3.3,4.4,2.8c5-1.1,8.4-4.5,11.4-8.4C374.9,51.7,374.8,51.4,374.8,50.7z"/>
		<path class="st0" d="M169.4,38.6c-0.4,9.3-0.8,19.2-1.1,29.1c-0.1,1.8-1,2.4-2.6,2.4c-5.8,0.2-10.3-4-10.4-9.7
			c0-2.7-0.1-2.9-2.8-2.5c-4.6,0.7-9.3,1.6-13.8,2.5c-0.8,0.2-1.6,1-2,1.8c-1.2,2-2.3,4-3.2,6.2c-0.8,1.8-2,2-3.6,1.3
			c-4.7-1.8-7.1-7.7-4.8-12.2c2.2-4.2,4.4-8.5,6.7-12.6c7.9-14,15.8-27.9,23.8-41.9c1.5-2.5,2.6-3.1,5.4-2.3
			c2.5,0.8,4.9,1.9,7.2,3.2c2.1,1.2,3,3.1,2.8,5.6C170.4,19,169.9,28.5,169.4,38.6z M157.6,19.9c-0.2-0.1-0.5-0.1-0.7-0.2
			c-4.4,9.4-8.9,18.9-13.5,28.7c3.7-0.4,6.8-0.9,10-1.1c1.6-0.1,2.3-0.6,2.4-2.2c0.6-7.8,1.3-15.6,2-23.4
			C157.8,21,157.6,20.4,157.6,19.9z"/>
		<path class="st0" d="M320.5,9.6c-0.9,19.2-1.7,38.6-2.6,58c-0.1,1.8-0.8,2.4-2.5,2.5c-5.7,0.3-10.5-4-10.5-9.7
			c0-2.8-0.1-3-2.9-2.6c-4.6,0.7-9.1,1.6-13.6,2.5c-0.8,0.2-1.6,1-2,1.7c-1.2,2-2.3,4-3.2,6.2c-0.8,1.9-2.1,2.1-3.8,1.4
			c-4.8-2-7-7.9-4.5-12.5c4.9-9.1,9.8-18.2,14.8-27.3c5.1-9.1,10.4-18,15.6-27c1.4-2.4,2.4-3,5.1-2.2c2.7,0.8,5.3,2,7.8,3.4
			C320.1,5.1,321.3,6.9,320.5,9.6z M293.1,48.3c1-0.1,1.5-0.1,2-0.2c2.5-0.3,5-0.9,7.5-0.9c2.1,0,2.8-0.8,3-2.8
			c0.6-7.5,1.3-15,1.9-22.6c0.1-0.6-0.1-1.3-0.2-1.9c-0.3-0.1-0.5-0.2-0.8-0.2C302.1,29.1,297.6,38.5,293.1,48.3z"/>
		<path class="st0" d="M286.2,19.8c0,6.3-2.5,11.7-6.4,16.4c-5.7,7-12.7,12.2-21.6,14.3c-1.7,0.4-3.7,0.5-5.4,0.1
			c-1.9-0.4-2.4,0.3-2.8,1.8c-1.5,5.1-3,10.2-4.6,15.2c-0.8,2.6-1.5,3-4,1.9c-2.6-1.1-4.7-3-6.2-5.5c-1-1.7-1-3.4-0.4-5.3
			c4.4-14.1,8.7-28.2,13-42.3c0.5-1.7,0.8-3.3-0.3-4.9c-0.4-0.5-0.6-1.2-0.8-1.9c-1.1-3.6-0.6-4.7,2.9-5.7c4.5-1.3,9-2.8,13.6-3.6
			C275.6-1.6,286,7.3,286.2,19.8z M254.4,39c0.8-0.1,1.4-0.1,1.8-0.3c7.8-3.4,13.7-8.8,16.9-16.8c1.1-2.8,1.8-5.8-0.4-8.3
			c-2.3-2.7-5.5-2.2-8.6-1.8c-1.4,0.2-2.1,0.9-2.5,2.2c-2.3,7.6-4.6,15.2-6.9,22.8C254.5,37.4,254.5,38.1,254.4,39z"/>
		<path class="st0" d="M85.1,47.9c1.2-13.5,5.8-27.6,15.6-39.6c3.9-4.8,8.8-8.6,15.5-8.2c6.6,0.4,11.5,3.8,14.8,9.5
			c1.2,2.1,1.4,4.5,0.7,6.7c-1.8,5.8-3.7,11.5-5.6,17.3c-0.7,2-1.9,2.4-3.9,1.5c-4.1-1.7-7.1-7.4-6-11.7c0.7-2.7,1.9-5.4,2.8-8.1
			c0.4-1,0.8-2,1-3.1c0.1-0.8-0.2-1.8-0.3-2.6c-0.9,0.2-2,0-2.6,0.5c-1.9,1.6-3.8,3.1-5.2,5.1c-8.2,11.5-13.5,24.2-14.5,38.4
			c-0.1,0.9,0,1.8,0,2.6c0.3,4,2.3,5,5.8,3c4.6-2.6,8-6.5,11.3-10.5c2-2.4,3.1-2.4,5.1,0.1c3.1,4,3.3,8.3,0.5,12.5
			c-6,9.1-19,12.1-27.1,6.1C87,63.2,85.1,56.8,85.1,47.9z"/>
		<path class="st0" d="M349.7,11.2c-0.1,0.5-0.3,1.5-0.6,2.5c-5.3,18-10.6,36-15.8,54c-0.7,2.5-1.6,2.9-4,1.9
			c-2.6-1.1-4.9-2.8-6.1-5.5c-0.7-1.5-1-3.5-0.6-5.1c5.2-18.9,10.5-37.7,15.8-56.6c0.3-1.2,0.8-2.1,2.3-2
			C344.9,1,349.8,6.5,349.7,11.2z"/>
	</g>
</g>
</svg>
