<?xml version="1.0" encoding="utf-8"?>
<!-- Generator: Adobe Illustrator 22.1.0, SVG Export Plug-In . SVG Version: 6.00 Build 0)  -->
<svg version="1.1" id="Layer_1" xmlns="http://www.w3.org/2000/svg" xmlns:xlink="http://www.w3.org/1999/xlink" x="0px" y="0px"
	 viewBox="0 0 35.3 29.9" style="enable-background:new 0 0 35.3 29.9;" xml:space="preserve">
<style type="text/css">
	.st0{fill:#FFFFFF;}
</style>
<path class="st0" d="M2.7,24.4h10.6l-1.5,4.1h-1.6v1.4h14.9v-1.4h-1.6L22,24.4h10.6c1.5,0,2.7-1.2,2.7-2.7v-19
	c0-1.5-1.2-2.7-2.7-2.7H2.7C1.2,0,0,1.2,0,2.7v19C0,23.2,1.2,24.4,2.7,24.4z M22.1,28.5h-8.9l1.5-4.1h5.8L22.1,28.5z M33.9,21.7
	c0,0.7-0.6,1.4-1.4,1.4H2.7c-0.7,0-1.4-0.6-1.4-1.4v-1.4h32.6L33.9,21.7L33.9,21.7z M1.4,2.7C1.4,2,2,1.4,2.7,1.4h29.9
	c0.7,0,1.4,0.6,1.4,1.4V19H1.4V2.7z"/>
<path class="st0" d="M21.5,7.9l-6.8,6.8l-1-1L20.6,7L21.5,7.9z"/>
<path class="st0" d="M18.1,7.3l-4.1,4.1l-1-1l4.1-4.1L18.1,7.3z"/>
<path class="st0" d="M22.2,11.3l-4.1,4.1l-1-1l4.1-4.1L22.2,11.3z"/>
</svg>
