<?xml version="1.0" encoding="utf-8"?>
<!-- Generator: Adobe Illustrator 22.1.0, SVG Export Plug-In . SVG Version: 6.00 Build 0)  -->
<svg version="1.1" id="Layer_1" xmlns="http://www.w3.org/2000/svg" xmlns:xlink="http://www.w3.org/1999/xlink" x="0px" y="0px"
	 viewBox="0 0 261 250.7" style="enable-background:new 0 0 261 250.7;" xml:space="preserve">
<style type="text/css">
	.st0{fill:#020123;}
	.st1{opacity:0.29;fill:#291A48;}
</style>
<path class="st0" d="M192.4,49.1l1.3,2.8h-3.1c-2.4-0.9-3.8-2.6-4-5.2l1.3-0.8C189.3,45.7,190.9,46.8,192.4,49.1z M208.7,43.7
	c-1,4.3-2.9,8.8-5.7,13.5c-1.5,2.5-4.1,6.5-7.9,12c-0.9,1.1-2.4,2.8-4.5,5.2c-1.8,2.1-3,4.4-3.8,6.8c1.6-0.6,3.6-1,6.1-1
	c2.6,0,4.4-0.1,5.3-0.3c3.3-0.7,6.2-0.4,8.9,1c2.1,1.1,4.3,3.1,6.5,6c2.6,3.3,5.6,7.4,8.9,12.5c5.1,7.7,7.9,12,8.4,12.8
	c1.7,2.3,2.6,6.2,2.8,11.7c0.3,10.5-0.1,24.6-1.3,42.2c-0.3,3.8-0.4,8.6-0.4,14.5c0,8.4,0,13.3,0,14.6c0,17.2,0.2,28.6,0.6,34.4
	c0.2,4.6-1,8.2-3.6,10.7c-2.5,2.5-6.2,3.8-11,3.8c-5.8,0-11.1,0.4-16,1.1c-3.8,0.6-8.7,0.9-14.6,0.8c-8-0.2-12.8-0.2-14.5,0
	c-14.2,0.9-38.2,1.5-72.1,1.7c-8.5,0-21.3,0.9-38.2,2.8c-7.3,0.6-14.7,0-22-1.5c-2.5-0.4-4.5-1.3-5.8-2.8c-1-1.2-1.9-3-2.5-5.4
	c-0.8-3.3-1.3-7.1-1.4-11.6c-0.2-2.6-0.2-6.4,0-11.4c-0.2-3,0-7.5,0.4-13.6c0.1-5.4-0.4-10-1.4-13.8c-0.5-1.2-0.5-3,0-5.3
	c0.6-3.8,1-5.8,1-5.8c0.4-4,0.3-8.7-0.3-14.2c-0.3-3.2-0.8-7.9-1.5-14.2c-0.2-1.6-0.4-3.9-0.7-7.1c-0.2-2.9-0.5-5.3-1-7.2
	c-1.6-6.1,0.4-12.1,5.8-18c15.3-17.7,27.2-30.8,35.5-39.1c1.9-1.9,4-2.8,6.5-2.8c5.5,0.1,13.6,0,24.5-0.1c1.5,0.1,2.7,0.1,3.6,0.1
	c1.4-0.1,2.6-0.6,3.8-1.4c-2.7-2.5-2.5-5.5,0.6-9.1c5.3-6.8,11-15.3,17.3-25.6c6.9-12,12-20.9,15.5-26.7c1.9-3.3,3-5.1,3.1-5.3
	c1.1-2.1,1.5-4.2,1.1-6.1c-0.2-0.7-0.1-1.3,0.3-1.7c0.4-0.6,1-0.7,1.8-0.6c1.5,0.4,2.2,1.3,2.2,2.9c0,1.7-0.8,4-2.4,7l-9.5,16.8
	c-8.5,15.4-16,27.6-22.4,36.5c-1.5,2.3-2.2,4.2-2.2,5.7l9.6-8.9c-0.6,2-1.4,3.8-2.6,5.3c-0.7,0.9-1.8,2-3.1,3.3
	c-1.8,2.1-2.6,3.5-2.4,4.2c0,0.6,1,1.9,2.9,3.8l3.1,2.9c2.4-1.6,5.2-3.9,8.4-6.8c5-4.5,7.9-7.1,8.6-7.8c-0.6,2.5-1.6,4.5-3.2,6.1
	l-6.4,5.6c-2.3,2.2-3.5,3.9-3.5,5.2c0.1,1.1,1.5,2.6,4.2,4.6c1.8,1.4,3.8,1.1,6-0.8l5.2-4.5c1-1.2,1.9-2,2.5-2.5
	c0.9-1.1,2.1-1.7,3.5-1.8c-0.8,2.1-2.6,4.4-5.2,6.7c-3.1,2.8-4.9,4.7-5.6,5.7c2.5,2.6,4.3,3.9,5.3,4c0.8,0.2,2.5-0.8,4.9-2.9
	l7.5-6.8c-0.1,2.1-0.8,3.9-2.1,5.2c-0.8,0.7-2,1.7-3.5,2.8c-1.6,1.5-2.4,2.3-2.5,2.5c-0.6,1.1-0.2,2.3,1.1,3.5
	c1.3,1.2,2.5,1.5,3.5,0.8c1.1-1,2-1.8,2.6-2.4c1.5-1.9,2.6-3.3,3.5-4.2c1.5-1.9,3.3-3.1,5.6-3.6l-11.6,15.6c3.6,0.4,6.8-0.7,9.6-3.2
	c3-3.2,5.3-5.5,7-7c0.4,1.7,0,3.3-1.1,4.9c-1.7,2.2-2.6,3.6-2.6,4c1.2,0.5,2.1,0.7,2.6,0.7c0.8,0,1.5-0.5,2.1-1.5
	c3-4.9,6.9-10.6,11.8-17c5.7-7.1,9.9-12.5,12.8-16.2c4.3-5.6,8.2-12.1,11.8-19.5c0.8-1.8,1.2-3.2,1-4.2c-0.3-1.3-1.2-2.5-2.6-3.6
	c-5-3.9-12.3-9.8-22-17.7c-8.8-6.9-16.6-12.3-23.3-16.2l-2.1-1.1c-0.8-0.5-1.4-1.1-1.8-1.8c-0.3-0.7-0.3-1.4,0-2.1
	c0.4-0.8,1.1-1.3,2.1-1.4c0.8-0.1,1.7,0.1,2.6,0.6c8.6,5.6,14.4,9.4,17.3,11.4c2.4,1.9,7.8,6.1,16.2,12.7
	c6.7,5.3,12.3,9.3,16.8,12.1C208.9,38.9,209.5,40.9,208.7,43.7z M183.7,38.4c2.1,1.2,2.9,2.4,2.2,3.5c-0.9,1.4-2.4,1.2-4.5-0.6
	c-7.5-5.8-12.9-10.7-16-14.8c1.6-0.5,3-0.4,4.2,0.3c0.3,0.2,1.1,0.9,2.4,2.2C175.8,33.6,179.7,36.7,183.7,38.4z M181.4,87.1
	l-12.3,15.6h14.5c1.4-0.2,2.5-0.3,3.2-0.3c1,0.1,1.6,0.8,1.8,2.1c0.1,1.4-0.4,2.3-1.5,2.8c-0.6,0.2-1.7,0.3-3.5,0.4h-8.5
	c-4.3-0.2-10.6-0.1-19.1,0.1c-8.5,0.4-14.9,0.4-19.1,0c-9.5-0.6-23.8-0.7-42.9-0.3c-1.5,0-2.4,0-2.8-0.1c-0.9-0.3-1.5-1-1.8-2.1
	c1.9-1.7,4.6-2.4,8.1-2.1c5,0.2,7.8,0.2,8.5,0.1c2.2-0.5,5.3-0.6,9.2-0.6c4.5,0.3,7.5,0.3,9.2,0c0.6-0.1,3.5,0.2,8.5,0.8
	c3.7,0.6,6.8,0,9.2-1.5c-0.1-0.1-1.5-1.2-4.3-3.3c-1.6-1.3-3-2.2-4.2-2.6c-2.9-1.1-5.8-2.9-8.6-5.4c-0.8-0.7-3.3-3.1-7.4-7.1
	c-3.4-3.2-7-4.5-10.7-4c-6.3,0.5-15.7,0.8-28.1,1.1c-3.5,0-6.9,1.5-10.2,4.5c-3.4,3.4-7.8,8.2-13.2,14.3c-6.3,7.1-10.7,12-13.1,14.6
	c-3.7,3.7-6.1,7.2-7.1,10.4c4.5-1.1,9.5-1.9,15-2.5c6.4-0.4,11.1-0.7,14.2-1.1c19.6-1.9,37.5-2.8,53.6-2.8
	c13.6,0.4,23.9,0.4,30.6,0.1c11.6-0.5,29-0.5,52.2,0l4.6,0.1c1.4,0.2,2,0.8,1.9,1.9c0,0.6-0.2,1-0.6,1.3c-0.5,0.5-1,0.7-1.5,0.7
	c-3.4,0.2-5.9,0.1-7.5-0.3c-1.9-0.4-4.7-0.6-8.5-0.6c-9.3,0-23.2,0-41.8-0.1c-16.5,0-30.5,0.1-41.9,0.3c-9.4,0.3-20.6,1-33.7,2.1
	c-1,0.1-6.4,0.7-16.2,1.9c-6.6,0.7-12,1-16.3,0.8c-3.6-0.2-5.9,0.2-6.8,1.1c-0.8,0.7-1.3,3-1.4,6.7c-0.1,0.8,0,2.1,0.1,3.9
	c1.2,8.2,2.1,14.3,2.6,18.4c0.9,7.3,1,13.6,0.3,18.7c-0.2,1.5,0.2,2.6,1.3,3.3c0.2,0.3,1.4,0.8,3.8,1.7c-2.9,1.9-4.4,4.4-4.6,7.4
	c-0.1,0.7,0.4,3.6,1.4,8.6l2.4-1.8c0.1-0.1,0.5-0.8,1.3-2.2c0.5-0.9,1.2-1.1,2.1-0.4c0.8,0.6,1,1.4,0.4,2.2
	c-0.4,0.5-0.9,1.2-1.7,2.1c-0.3,0.4-0.8,1-1.5,1.8c-2.4,2.2-3.7,5-3.9,8.2c0,1.8,0.4,5,1.3,9.6c1.2-1,2.9-2.8,5.2-5.3
	c1.9-2.1,3.4-3.6,4.6-4.3c1.5-0.9,2.5-2,3.1-3.2c0.4-1,0.5-2.4,0.4-4.2c-0.5-13,0.9-25.6,4-37.9c3-11.8,9.3-17.8,18.9-18.1
	c11.8-1.1,20.7-1.7,26.7-1.8c20.8,0,46.4-0.8,76.7-2.5c0.2,0,8.9-0.2,26-0.6h1.8c0.6,0.2,1,0.7,1.1,1.5c0,0.1,0.7,3.8,2.1,11.1
	c0.8,4.4,0.9,8.1,0.3,11.3c-0.3,1.5-0.3,3.7-0.1,6.7c0.5,9,0.8,15.7,1,20.2c0.3,8,0.2,14.8-0.3,20.3c-0.6,6.1-2.7,10.8-6.5,14.1
	c-3.5,3.2-8,4.6-13.4,4.3c-7.1-0.2-15.5-0.1-25.3,0.1l-51.4,1.4c-3.8,0-6.4,0.2-7.7,0.7c-2.5,0.9-4.1,3-4.9,6.1
	c-0.2,0.8-0.7,1.6-1.5,2.4c-0.6,0.5-1.4,1.1-2.5,1.9c-0.9,0.7-1.5,1.3-1.7,1.7c-0.5,0.6-0.5,1.4,0,2.2c6.5,0.6,10.6,0.6,12.4,0
	c1.7-0.6,4.7-3.2,9.1-7.5c0.8-1.3,1.5-2.3,2.1-2.9c0.9-1.1,2.2-1.5,3.8-1.3c-0.5,1.8-1.8,3.7-3.9,5.7c-2.3,2.2-3.7,4-4.2,5.3
	c0.7,0.5,1.5,0.7,2.4,0.7c1,0,1.8,0,2.2,0c4.8,0.8,9.1-0.8,12.8-5c0.9-1,2.2-2.2,3.8-3.5c1.8-1.3,3.1-2.3,4-3.1
	c-0.3,1.8-1.3,3.6-3.2,5.4c-2.4,2.2-3.9,3.9-4.3,5c0.2,0,2.2,0,6.1,0.1c2.3,0.1,4.2,0,5.7-0.1c2.3-0.4,4.8-1.9,7.5-4.6
	c3.4-3.3,5.9-5.2,7.4-6c-0.2,2-1.3,3.9-3.2,5.6c-2.1,1.9-3.4,3.5-3.8,4.6l3.3,0.4c5.6,0.9,10-0.7,13.2-5c1.4-1.9,2.3-2.9,2.6-3.2
	c1.2-1.2,2.6-1.8,4.2-1.8c-0.2,1.7-1.3,3.3-3.2,4.9c-2,1.8-3.2,3.3-3.5,4.6c4.6,0.1,7.7-0.1,9.1-0.6c1.3-0.6,3.4-2.3,6.4-5.2
	c0.9-1.1,1.6-1.9,2.1-2.2c1-0.8,2.1-1.1,3.3-0.7c-0.3,0.6-1.4,1.9-3.3,3.9c-1.4,1.4-1.9,2.8-1.7,4.3c4.5,0.8,8.2,0.9,11.1,0.1
	c3.5-0.9,6.5-3.1,8.8-6.5l0.7-0.4l1.3,0.4c0.6,0.8,0.4,1.8-0.4,2.8c-0.8,1.1-1.2,2.1-1,2.9c3.9-0.1,6.9-0.2,8.9-0.3
	c3.5-0.2,6.5-0.6,9.1-1.3c3.1-0.9,5-1.9,5.8-2.9c0.8-1.1,1.3-3.2,1.3-6.1v-43.7c0-0.8,0-4,0-9.6c0-3.8,0.1-7,0.4-9.6
	c0.8-8.1,1.3-21.8,1.3-41.2c-0.1-2.6-0.5-4.2-1.1-4.7c-0.6-0.6-2.2-0.7-5-0.6c-1,0.1-2.6,0.2-4.7,0.3c-1.9,0-3.5-0.2-5-0.7
	c1.3-1.4,3.4-2.3,6.4-2.6c3-0.4,5-1.1,6.1-2.2c-3-7.1-8.3-15.9-16-26.2c-2.1-2.8-6.5-4.6-13-5.6c-6.3-0.9-11.1-0.5-14.3,1.3
	C182.6,85.6,182.1,86.2,181.4,87.1z M200.8,142.1c-0.6-0.5-1.7-0.6-3.2-0.6c-12.6,0.3-19,0.4-19.1,0.4c-14.4,0.5-36,1.2-64.9,2.2
	c-7,0.3-19.9,1.2-38.9,2.8c-8.1,0.6-13.4,5.3-15.9,14.2c-4.9,16.9-5.6,34.6-1.9,53.1c0.7,4.3,1.9,7.1,3.5,8.6
	c1.7,1.4,4.7,2.3,9.2,2.6c4.3,0.6,9.9,0.7,16.8,0.4c8.7-0.4,14.3-0.5,16.7-0.4c7.4,0.3,17.5,0.1,30.4-0.4c15.3-0.6,26.1-1,32.3-1
	c1.5-0.1,5.6-0.1,12.4-0.1c5.8,0.1,10.7-0.2,14.5-0.8c2.8-0.4,5.1-1.5,7-3.5c1.6-1.7,2.6-3.7,2.9-6.1c0.9-6.6,1.5-10.9,1.7-12.8
	c0.6-4.8,0.6-9.1,0-13c-1.4-12.3-1.8-21.9-1.1-29c0.2-3.1-0.2-7.6-1.1-13.6C201.9,143.7,201.5,142.7,200.8,142.1z M136.6,192.2
	c0.4,0.1,1.5-0.2,3.3-1c1.4-0.6,2.2-0.3,2.4,1.1c0.5,1.7,0,2.6-1.5,2.8c-0.9,0.1-2.2,0.2-3.9,0.3l-0.8,0.4c-5,0.8-8-0.3-9.1-3.5
	c-0.6-1.7-0.4-3.3,0.6-4.7c0.6-0.7,1.8-1.9,3.6-3.5c2.9-2.7,6.3-2.5,10.3,0.7c-0.6,0.9-1.5,1.3-2.6,1c-1.8-0.1-2.8-0.1-3.1,0
	c-3,1.1-4.3,2.7-3.9,4.9c0.3,0.8,0.9,1.3,1.9,1.4C135.1,192.1,136,192.1,136.6,192.2z M167.9,183.2c0.9-0.9,3.3-1.9,7.1-2.8l3.6,0.8
	c2,0.8,2.8,1.9,2.2,3.3c-0.4,1.2-1.6,1.3-3.6,0.4c-3.9-1.1-6.2,0-7,3.3c-0.3,1.7,0.1,3,1.1,4c1.1,1.1,2.5,1.1,4.2,0l2.5-1.8
	c0.9-1,1.8-1.1,2.5-0.3c0.6,0.6,0.7,1.6,0.3,2.8c-0.5,1.2-1.7,2.3-3.8,3.3c-2.2,1.1-4,1.5-5.3,1.1c-3.2-0.7-5.1-2.6-5.8-5.4
	C165,188.3,165.6,185.3,167.9,183.2z M126.6,55.4c0.7-0.8,2.6-2.2,5.7-4c-0.5,1.8-1.5,3.4-3.2,4.9c-1,0.8-2.6,2.1-4.6,3.8
	C125.2,57.6,125.9,56.1,126.6,55.4z M87.2,178.2c3.4-1.9,6.2-2.1,8.4-0.8c1.1,0.8,1.5,1.7,1.1,2.6c-0.1,0.7-0.6,1.1-1.7,1.1h-3.8
	c-3.2,0.4-4.6,1.8-4.3,4.3c0.1,2.7,1.8,4.3,5.2,4.7c0.9,0.3,2.2,0,3.9-1c1.7-0.7,2.9-1.1,3.8-1.1l0.3,1c-2.2,4.5-6.3,5.9-12.1,4.2
	c-1.9-0.6-3.4-1.7-4.5-3.3c-1.2-1.6-1.7-3.3-1.4-5.3C82.1,182,83.8,179.8,87.2,178.2z M48.7,208c-7.6,6.9-12,12.1-13.2,15.7
	c-1.2,3.5-0.2,8.9,2.9,16c1.8-1,4-3.1,6.7-6.3c2.7-3.2,5.1-5.2,7.2-6.1c0.2,1.2,0,2.2-0.7,2.9c-0.3,0.4-0.9,0.9-1.8,1.7l-9.3,10.2
	c-0.9,0.8-1.3,1.7-1,2.5c0.2,0.9,0.8,1.4,1.9,1.5c2.9,0.5,5,0.7,6.4,0.7c2.5,0,4.5-0.9,5.8-2.8c1.4-2.1,3.4-4.3,6.1-6.4
	c3.2-2.2,5.5-4,7-5.3c-2.6,5-6.7,9.1-12.4,12.1c3.3,1.8,6.8,2.5,10.6,2.1c3.7-0.4,6.8-1.8,9.3-4.3l8.9-8.5c0.8-0.8,1.3-1.3,1.4-1.4
	c0.7-0.5,1.5-0.3,2.2,0.6c-0.8,1.3-2.6,3.3-5.4,6c-2.4,2.3-4.1,4.4-5.2,6.3c7.4,0.8,13.1-1.4,17-6.8c1.8-1.6,3.1-2.8,3.9-3.6
	c1.4-1.5,1.8-2.9,1.1-4.2c-0.6-1.3-1.9-1.9-3.9-1.9c-1.1,0-2.8,0.2-5.2,0.7c-8.4,0.8-16,0.8-22.8-0.1c-4.6-0.7-8.1-2.2-10.4-4.3
	c-2.4-2.2-4-5.6-4.7-10.2c-0.4-2-0.6-3.2-0.6-3.5C50.3,209.8,49.7,208.7,48.7,208z"/>
<polygon class="st1" points="94.6,157.1 34.3,101.9 0,139.4 96.2,227.4 261,62.6 225.1,26.6 "/>
</svg>
